<svg xmlns="http://www.w3.org/2000/svg" viewBox="0 0 550 550"><g fill="none" stroke="#849790" stroke-width="2"><path d="M240.84 206.04q-30.46-6.38-59.06 3.52c-43.26 14.97-59.93 55.56-55.25 98.68 3.63 33.43 22.27 56.57 54.39 66.24 34.01 10.24 73.23 6.71 107.57-.29q3.08-.63 6.33-.98.43-.05.43-.48v-247.7q0-.53-.53-.53l-53-.01q-.47 0-.47.47v80.75q0 .42-.41.33M380.798 125.317a.36.36 0 0 0-.36-.36l-53.28-.093a.36.36 0 0 0-.36.359l-.096 54.62a.36.36 0 0 0 .36.36l53.28.094a.36.36 0 0 0 .36-.36l.096-54.62" vector-effect="non-scaling-stroke"/><path d="m274.98 429.79 48.01 22.75a2.11 2.1 45.2 0 0 1.78.01c13.61-6.24 26.7-15.23 35.76-27.11 17.17-22.52 20.19-53.64 20.21-81.44q.04-67.98 0-136 0-.5-.5-.5h-52.97q-.49 0-.49.49 0 61.85-.31 123.69c-.09 16.75-.95 33.4-5.39 49.64-5.32 19.5-17.81 32.56-35.45 41.77q-5.55 2.9-10.67 5.61a.61.61 0 0 0 .02 1.09M240.87 249.8c-24.38-7.1-51.39-.44-58.08 27.22-5.32 22.03-.96 51.4 24.98 57.97q15.65 3.97 33.12.4.36-.08.36-.44V250.3a.53.52 8.2 0 0-.38-.5" vector-effect="non-scaling-stroke"/></g><path fill="#092e20" d="M523.07 303.25c-8.98 78.25-54.13 147.63-121.95 187.24-5.52 3.23-11.14 6.64-16.75 9.3q-37.66 17.82-79.16 23.08c-1.28.16-3.28-.15-4.86.67q-.44.23-.94.24-4.35.05-11.41.72-13.19 1.26-27.57-.21c-2.66-.27-5.91-.07-8.77-.51-4.39-.67-7.41-.98-11.59-1.6-29.74-4.43-58.14-13.05-83.93-27.28-8.35-4.6-15.78-8.79-23.14-14.15-4.44-3.23-12.18-8.33-17.57-13.43q-.51-.48-1.08-.95c-12.74-10.59-24.26-22.04-34.4-35.16-4.03-5.21-8.22-10.46-11.75-15.73-23.19-34.77-37.61-73.57-41.78-114.57-.25-2.39-.21-7.28-.73-10.81q-.4-2.71-.46-4.3-2.84-80.27 39.82-146.66c31.98-49.77 79.4-84.97 135.74-102.93 20.23-6.45 39.93-9.07 60.21-10.65q18.17-1.42 27.75-.07c3.54.5 7.12.48 9.63.71 63.8 5.8 121.69 35.9 164.11 83.6 12.45 13.99 24.02 30.44 32.68 46.93a89.49 29 63.5 0 1 5.64 11.33q17.65 37.61 22.32 78.74c1.63 14.4 2.29 27.47 1.46 41.64q-.06.89-.31 1.56-.15.4-.16.84-.05 3.65-1.05 12.41Zm-282.23-97.21q-30.46-6.38-59.06 3.52c-43.26 14.97-59.93 55.56-55.25 98.68 3.63 33.43 22.27 56.57 54.39 66.24 34.01 10.24 73.23 6.71 107.57-.29q3.08-.63 6.33-.98.43-.05.43-.48v-247.7q0-.53-.53-.53l-53-.01q-.47 0-.47.47v80.75q0 .42-.41.33Zm139.958-80.723a.36.36 0 0 0-.36-.36l-53.28-.093a.36.36 0 0 0-.36.359l-.096 54.62a.36.36 0 0 0 .36.36l53.28.094a.36.36 0 0 0 .36-.36l.096-54.62ZM274.98 429.79l48.01 22.75a2.11 2.1 45.2 0 0 1.78.01c13.61-6.24 26.7-15.23 35.76-27.11 17.17-22.52 20.19-53.64 20.21-81.44q.04-67.98 0-136 0-.5-.5-.5h-52.97q-.49 0-.49.49 0 61.85-.31 123.69c-.09 16.75-.95 33.4-5.39 49.64-5.32 19.5-17.81 32.56-35.45 41.77q-5.55 2.9-10.67 5.61a.61.61 0 0 0 .02 1.09Z"/><path fill="#fff" d="M241.25 205.71v-80.75q0-.47.47-.47l53 .01q.53 0 .53.53v247.7q0 .43-.43.48-3.25.35-6.33.98c-34.34 7-73.56 10.53-107.57.29-32.12-9.67-50.76-32.81-54.39-66.24-4.68-43.12 11.99-83.71 55.25-98.68q28.6-9.9 59.06-3.52.41.09.41-.33Zm-.38 44.09c-24.38-7.1-51.39-.44-58.08 27.22-5.32 22.03-.96 51.4 24.98 57.97q15.65 3.97 33.12.4.36-.08.36-.44V250.3a.53.52 8.2 0 0-.38-.5Z"/><rect width="54" height="55.34" x="-27" y="-27.67" fill="#fff" rx=".36" transform="rotate(.1 -87245.003 202760.059)"/><path fill="#fff" d="M274.98 429.79a.61.61 0 0 1-.02-1.09q5.12-2.71 10.67-5.61c17.64-9.21 30.13-22.27 35.45-41.77 4.44-16.24 5.3-32.89 5.39-49.64q.31-61.84.31-123.69 0-.49.49-.49h52.97q.5 0 .5.5.04 68.02 0 136c-.02 27.8-3.04 58.92-20.21 81.44-9.06 11.88-22.15 20.87-35.76 27.11a2.11 2.1 45.2 0 1-1.78-.01l-48.01-22.75Z"/><path fill="#092e20" d="M240.87 249.8a.53.52 8.2 0 1 .38.5v84.65q0 .36-.36.44-17.47 3.57-33.12-.4c-25.94-6.57-30.3-35.94-24.98-57.97 6.69-27.66 33.7-34.32 58.08-27.22Z"/></svg>