<svg width="119" height="83" viewBox="0 0 119 83" fill="none" xmlns="http://www.w3.org/2000/svg">
<g clip-path="url(#clip0_11_149)">
<path d="M65.1555 2.99155C65.1553 2.8958 65.1172 2.80403 65.0494 2.73638C64.9817 2.66873 64.8899 2.63074 64.7941 2.63074L53.4084 2.65075C53.3609 2.65075 53.3138 2.66012 53.27 2.67831C53.2261 2.69651 53.1862 2.72317 53.1527 2.75679C53.1191 2.7904 53.0925 2.83031 53.0744 2.87421C53.0562 2.91812 53.0469 2.96517 53.047 3.01267L53.0648 13.053C53.065 13.1488 53.1031 13.2405 53.1709 13.3082C53.2386 13.3758 53.3304 13.4138 53.4262 13.4138L64.8119 13.3938C64.8594 13.3938 64.9064 13.3844 64.9503 13.3663C64.9942 13.3481 65.0341 13.3214 65.0676 13.2878C65.1012 13.2542 65.1278 13.2143 65.1459 13.1704C65.1641 13.1264 65.1733 13.0794 65.1733 13.0319L65.1555 2.99155ZM36.2297 16.3342C36.2296 16.2385 36.1914 16.1467 36.1237 16.079C36.0559 16.0114 35.9641 15.9734 35.8684 15.9734L24.5049 15.9934C24.4574 15.9934 24.4103 16.0028 24.3664 16.021C24.3226 16.0392 24.2827 16.0658 24.2491 16.0994C24.2156 16.1331 24.189 16.173 24.1708 16.2169C24.1527 16.2608 24.1434 16.3078 24.1435 16.3553L24.1613 26.4068C24.1614 26.5025 24.1996 26.5943 24.2673 26.662C24.3351 26.7296 24.4269 26.7676 24.5226 26.7676L35.8861 26.7476C35.9336 26.7476 35.9807 26.7382 36.0246 26.72C36.0684 26.7018 36.1083 26.6752 36.1419 26.6416C36.1754 26.6079 36.202 26.568 36.2202 26.5241C36.2383 26.4802 36.2476 26.4332 36.2475 26.3857L36.2297 16.3342ZM50.6954 16.3453C50.6952 16.2481 50.6565 16.1549 50.5877 16.0862C50.5189 16.0175 50.4257 15.979 50.3285 15.979L38.9427 15.999C38.8945 15.999 38.8467 16.0085 38.8022 16.027C38.7576 16.0454 38.7172 16.0725 38.6831 16.1066C38.649 16.1408 38.622 16.1813 38.6036 16.2259C38.5852 16.2704 38.5757 16.3182 38.5758 16.3664L38.5936 26.3957C38.5937 26.4929 38.6325 26.5861 38.7013 26.6548C38.77 26.7235 38.8633 26.762 38.9605 26.762L50.3462 26.742C50.3945 26.742 50.4422 26.7325 50.4868 26.714C50.5313 26.6956 50.5718 26.6685 50.6059 26.6344C50.64 26.6002 50.667 26.5597 50.6854 26.5151C50.7038 26.4706 50.7132 26.4228 50.7132 26.3746L50.6954 16.3453ZM65.1688 16.268C65.1687 16.2286 65.1608 16.1896 65.1455 16.1532C65.1303 16.1169 65.1081 16.0839 65.0801 16.0561C65.0521 16.0283 65.019 16.0063 64.9825 15.9914C64.946 15.9764 64.9069 15.9688 64.8675 15.9689L53.315 16.009C53.2756 16.0091 53.2366 16.017 53.2002 16.0323C53.1638 16.0475 53.1308 16.0697 53.103 16.0977C53.0753 16.1257 53.0533 16.1588 53.0383 16.1953C53.0234 16.2318 53.0157 16.2709 53.0159 16.3103L53.0515 26.5174C53.0516 26.5569 53.0595 26.5959 53.0747 26.6322C53.09 26.6686 53.1122 26.7016 53.1402 26.7294C53.1682 26.7572 53.2013 26.7792 53.2378 26.7941C53.2743 26.8091 53.3134 26.8167 53.3528 26.8165L64.9053 26.7765C64.9447 26.7764 64.9837 26.7684 65.0201 26.7532C65.0565 26.738 65.0895 26.7158 65.1173 26.6878C65.145 26.6598 65.167 26.6266 65.182 26.5901C65.1969 26.5537 65.2046 26.5146 65.2044 26.4752L65.1688 16.268Z" stroke="#0885C9" stroke-width="2"/>
<path d="M31.6021 66.7078C25.5571 70.0027 19.236 71.348 12.6388 70.7439C12.6071 70.7403 12.5751 70.7469 12.5474 70.7627C12.5197 70.7785 12.4978 70.8027 12.4848 70.8318C12.4718 70.8609 12.4684 70.8934 12.4751 70.9246C12.4818 70.9558 12.4982 70.984 12.522 71.0052C21.9453 79.7891 35.3046 81.6738 47.8801 79.9003" stroke="#83B6D2" stroke-width="2"/>
<path d="M47.8801 79.9003C55.6003 79.3332 62.8535 77.456 69.6397 74.2685C83.5495 67.7306 92.6558 56.8286 98.6711 42.5575C98.703 42.4786 98.7602 42.4122 98.8344 42.3681C98.9085 42.324 98.9955 42.3046 99.0825 42.3129C106.004 42.9411 112.598 41.0064 115.583 34.2628C115.653 34.0997 115.622 33.9607 115.488 33.8458C112.247 30.9994 104.842 31.6276 100.923 32.7117C100.745 32.7636 100.65 32.6969 100.639 32.5116C100.365 27.0226 97.9614 22.7714 93.4286 19.7582C93.2581 19.6433 93.1173 19.6711 93.0061 19.8416C89.4592 25.301 88.7642 33.251 93.2562 38.4157C93.3007 38.4659 93.3338 38.5252 93.3533 38.5893C93.3728 38.6535 93.3783 38.7211 93.3693 38.7876C93.3603 38.854 93.3371 38.9178 93.3013 38.9745C93.2655 39.0312 93.2179 39.0795 93.1617 39.1162C89.8075 41.3326 86.0716 42.4444 81.9539 42.4519C55.6578 42.5038 29.3412 42.5353 3.0043 42.5464C2.81157 42.5464 2.70965 42.6427 2.69853 42.8355C2.17223 51.5823 4.29223 59.5805 9.05853 66.83C9.69786 67.8029 10.5763 68.1198 11.6492 68.2532C18.1908 69.0612 24.3785 67.877 30.2122 64.7007C30.4086 64.5933 30.5569 64.6377 30.657 64.8342L31.6021 66.7077" stroke="#0885C9" stroke-width="2"/>
<path d="M47.8801 79.9003C40.79 77.1465 35.3639 72.749 31.6021 66.7078" stroke="#84CEF6" stroke-width="2"/>
<path d="M41.9371 18.414C41.9372 18.3344 41.9217 18.2555 41.8913 18.1819C41.8609 18.1083 41.8164 18.0414 41.7602 17.985C41.7039 17.9286 41.6371 17.8839 41.5636 17.8533C41.4901 17.8228 41.4113 17.807 41.3316 17.8069H41.2983C41.2187 17.8068 41.1399 17.8223 41.0663 17.8526C40.9927 17.8829 40.9258 17.9275 40.8695 17.9836C40.8131 18.0398 40.7683 18.1065 40.7377 18.18C40.7072 18.2534 40.6913 18.3322 40.6912 18.4118L40.6812 24.2492C40.681 24.3288 40.6966 24.4076 40.7269 24.4812C40.7572 24.5548 40.8017 24.6216 40.8579 24.678C40.914 24.7344 40.9808 24.7791 41.0542 24.8097C41.1277 24.8403 41.2065 24.8561 41.286 24.8563H41.3194C41.399 24.8564 41.4778 24.8409 41.5514 24.8106C41.625 24.7803 41.6918 24.7358 41.7482 24.6796C41.8046 24.6234 41.8494 24.5567 41.8799 24.4832C41.9105 24.4098 41.9263 24.331 41.9265 24.2514L41.9365 18.414M63.0674 18.3829C63.0678 18.3069 63.0533 18.2316 63.0246 18.1612C62.9959 18.0909 62.9536 18.0269 62.9002 17.9729C62.8468 17.9189 62.7832 17.8759 62.7132 17.8465C62.6431 17.8171 62.568 17.8017 62.492 17.8014H62.4586C62.3054 17.8006 62.1581 17.8607 62.0492 17.9685C61.9402 18.0763 61.8785 18.223 61.8777 18.3762L61.8465 24.2692C61.8461 24.3452 61.8606 24.4205 61.8893 24.4909C61.918 24.5612 61.9603 24.6252 62.0137 24.6792C62.0671 24.7332 62.1307 24.7762 62.2007 24.8056C62.2708 24.835 62.346 24.8504 62.4219 24.8507H62.4553C62.5312 24.8511 62.6065 24.8365 62.6768 24.8078C62.747 24.7791 62.811 24.7368 62.8649 24.6833C62.9189 24.6299 62.9618 24.5664 62.9912 24.4964C63.0206 24.4264 63.0359 24.3513 63.0362 24.2753L63.0674 18.3823M36.2386 29.554C36.2386 29.4906 36.2134 29.4298 36.1686 29.385C36.1238 29.3401 36.063 29.315 35.9996 29.315H24.3915C24.3281 29.315 24.2673 29.3401 24.2224 29.385C24.1776 29.4298 24.1524 29.4906 24.1524 29.554V39.7945C24.1524 39.8259 24.1586 39.857 24.1706 39.886C24.1826 39.915 24.2002 39.9413 24.2224 39.9635C24.2446 39.9857 24.271 40.0033 24.3 40.0154C24.329 40.0274 24.3601 40.0336 24.3915 40.0336H35.9996C36.031 40.0336 36.0621 40.0274 36.0911 40.0154C36.1201 40.0033 36.1464 39.9857 36.1686 39.9635C36.1908 39.9413 36.2084 39.915 36.2204 39.886C36.2324 39.857 36.2386 39.8259 36.2386 39.7945V29.554ZM65.1711 29.5084C65.1712 29.4554 65.1504 29.4046 65.113 29.3669C65.0757 29.3293 65.025 29.308 64.972 29.3077L53.275 29.2666C53.2486 29.2665 53.2226 29.2716 53.1982 29.2817C53.1739 29.2917 53.1517 29.3064 53.1331 29.325C53.1145 29.3436 53.0997 29.3657 53.0896 29.39C53.0795 29.4143 53.0743 29.4404 53.0743 29.4667L53.0381 39.8401C53.038 39.8931 53.0589 39.944 53.0962 39.9816C53.1335 40.0192 53.1842 40.0405 53.2372 40.0408L64.9342 40.0819C64.9606 40.082 64.9867 40.0769 65.011 40.0669C65.0353 40.0568 65.0575 40.0421 65.0761 40.0235C65.0948 40.0049 65.1096 39.9828 65.1197 39.9585C65.1297 39.9342 65.1349 39.9081 65.1349 39.8818L65.1711 29.5084ZM21.793 29.5924C21.793 29.526 21.7666 29.4624 21.7197 29.4155C21.6728 29.3686 21.6092 29.3422 21.5428 29.3422L9.95693 29.3216C9.89067 29.3216 9.82713 29.3479 9.78023 29.3947C9.73332 29.4415 9.7069 29.505 9.70675 29.5712L9.68896 39.7784C9.68896 39.8447 9.71532 39.9084 9.76224 39.9553C9.80915 40.0022 9.87279 40.0286 9.93914 40.0286L21.525 40.0491C21.5913 40.0491 21.6548 40.0228 21.7017 39.976C21.7486 39.9293 21.775 39.8658 21.7752 39.7995L21.793 29.5924ZM50.6965 29.6646C50.6966 29.6223 50.6883 29.5803 50.6721 29.5411C50.656 29.5019 50.6322 29.4663 50.6023 29.4363C50.5723 29.4063 50.5367 29.3825 50.4976 29.3662C50.4584 29.35 50.4165 29.3416 50.3741 29.3416L38.9327 29.3216C38.8473 29.3216 38.7654 29.3555 38.7049 29.4159C38.6445 29.4762 38.6104 29.5581 38.6103 29.6435L38.5925 39.7061C38.5924 39.7485 38.6007 39.7905 38.6169 39.8297C38.6331 39.8689 38.6568 39.9045 38.6867 39.9345C38.7167 39.9645 38.7523 39.9883 38.7914 40.0045C38.8306 40.0208 38.8725 40.0291 38.9149 40.0291L50.3563 40.0491C50.4417 40.0491 50.5236 40.0152 50.5841 39.9549C50.6445 39.8945 50.6786 39.8127 50.6787 39.7272L50.6965 29.6646ZM79.5967 29.5151C79.5967 29.4664 79.5774 29.4198 79.543 29.3854C79.5086 29.351 79.4619 29.3316 79.4132 29.3316H67.6828C67.6342 29.3316 67.5875 29.351 67.5531 29.3854C67.5187 29.4198 67.4994 29.4664 67.4994 29.5151V39.8557C67.4994 39.9043 67.5187 39.951 67.5531 39.9854C67.5875 40.0198 67.6342 40.0391 67.6828 40.0391H79.4132C79.4619 40.0391 79.5086 40.0198 79.543 39.9854C79.5774 39.951 79.5967 39.9043 79.5967 39.8557V29.5151ZM56.3966 5.11027C56.3968 5.03069 56.3812 4.95186 56.3509 4.87828C56.3206 4.80471 56.2761 4.73782 56.2199 4.68145C56.1637 4.62507 56.097 4.58032 56.0235 4.54973C55.9501 4.51914 55.8713 4.50332 55.7917 4.50317H55.7584C55.6788 4.50303 55.6 4.51856 55.5264 4.54888C55.4528 4.5792 55.3859 4.62371 55.3296 4.67988C55.2732 4.73604 55.2284 4.80276 55.1978 4.87623C55.1673 4.94969 55.1514 5.02846 55.1513 5.10804L55.1413 10.8676C55.1411 10.9472 55.1567 11.026 55.187 11.0996C55.2173 11.1732 55.2618 11.2401 55.318 11.2964C55.3741 11.3528 55.4409 11.3976 55.5143 11.4282C55.5878 11.4587 55.6666 11.4746 55.7462 11.4747H55.7795C55.8591 11.4749 55.9379 11.4593 56.0115 11.429C56.0851 11.3987 56.152 11.3542 56.2083 11.298C56.2647 11.2418 56.3095 11.1751 56.34 11.1017C56.3706 11.0282 56.3865 10.9494 56.3866 10.8698L56.3966 5.11027ZM59.7217 5.15919C59.7217 5.0029 59.6596 4.85301 59.5491 4.74249C59.4386 4.63198 59.2887 4.56989 59.1324 4.56989H59.0768C58.9205 4.56989 58.7706 4.63198 58.6601 4.74249C58.5496 4.85301 58.4875 5.0029 58.4875 5.15919V10.8965C58.4875 11.0528 58.5496 11.2027 58.6601 11.3132C58.7706 11.4237 58.9205 11.4858 59.0768 11.4858H59.1324C59.2887 11.4858 59.4386 11.4237 59.5491 11.3132C59.6596 11.2027 59.7217 11.0528 59.7217 10.8965V5.15919ZM63.0429 5.12027C63.0415 4.97597 62.9828 4.83814 62.8798 4.73704C62.7768 4.63594 62.638 4.57982 62.4936 4.58101L62.3491 4.58156C62.2775 4.58215 62.2067 4.59683 62.1408 4.62479C62.0749 4.65274 62.0151 4.69341 61.9649 4.74447C61.9148 4.79554 61.8751 4.856 61.8483 4.92239C61.8215 4.98878 61.8081 5.0598 61.8087 5.13139L61.8599 10.9354C61.8613 11.0798 61.92 11.2176 62.023 11.3187C62.1259 11.4198 62.2648 11.4759 62.4091 11.4747L62.5537 11.4742C62.6252 11.4735 62.696 11.4588 62.7618 11.4308C62.8277 11.4028 62.8873 11.3621 62.9375 11.3111C62.9876 11.26 63.0272 11.1996 63.054 11.1332C63.0807 11.0669 63.0942 10.9959 63.0935 10.9243L63.0429 5.12027ZM27.4875 18.4529C27.4877 18.3733 27.4721 18.2945 27.4418 18.2209C27.4115 18.1474 27.367 18.0805 27.3108 18.0241C27.2546 17.9677 27.1879 17.923 27.1145 17.8924C27.041 17.8618 26.9622 17.846 26.8826 17.8458H26.8493C26.7697 17.8457 26.6909 17.8612 26.6173 17.8915C26.5437 17.9219 26.4768 17.9664 26.4205 18.0225C26.3641 18.0787 26.3193 18.1454 26.2888 18.2189C26.2582 18.2924 26.2423 18.3711 26.2422 18.4507L26.2322 24.2103C26.232 24.2899 26.2476 24.3687 26.2779 24.4423C26.3082 24.5158 26.3527 24.5827 26.4089 24.6391C26.4651 24.6955 26.5318 24.7402 26.6052 24.7708C26.6787 24.8014 26.7575 24.8172 26.8371 24.8174H26.8704C26.95 24.8175 27.0288 24.802 27.1024 24.7717C27.176 24.7413 27.2429 24.6968 27.2992 24.6407C27.3556 24.5845 27.4004 24.5178 27.431 24.4443C27.4615 24.3709 27.4774 24.2921 27.4775 24.2125L27.4875 18.4529ZM30.8226 18.4596C30.8229 18.38 30.8075 18.3012 30.7773 18.2275C30.7472 18.1539 30.7028 18.0869 30.6467 18.0304C30.5906 17.974 30.524 17.9291 30.4506 17.8984C30.3772 17.8676 30.2984 17.8517 30.2189 17.8514H30.1855C30.1059 17.8511 30.0271 17.8665 29.9534 17.8967C29.8798 17.9268 29.8128 17.9712 29.7564 18.0273C29.6999 18.0834 29.655 18.15 29.6243 18.2234C29.5936 18.2968 29.5776 18.3756 29.5773 18.4551L29.5573 24.2592C29.557 24.3388 29.5724 24.4176 29.6026 24.4913C29.6328 24.5649 29.6771 24.6319 29.7332 24.6883C29.7893 24.7448 29.8559 24.7897 29.9293 24.8204C30.0027 24.8512 30.0815 24.8671 30.161 24.8674H30.1944C30.274 24.8677 30.3528 24.8523 30.4265 24.8221C30.5001 24.7919 30.5671 24.7476 30.6235 24.6915C30.68 24.6354 30.7249 24.5688 30.7556 24.4954C30.7864 24.422 30.8023 24.3432 30.8026 24.2636L30.8226 18.4596ZM34.1594 18.464C34.1595 18.3931 34.1457 18.3229 34.1187 18.2573C34.0916 18.1918 34.0519 18.1322 34.0018 18.082C33.9518 18.0318 33.8923 17.992 33.8268 17.9648C33.7613 17.9376 33.691 17.9237 33.6201 17.9237H33.4534C33.3105 17.9237 33.1735 17.9803 33.0724 18.0812C32.9713 18.1821 32.9144 18.319 32.9141 18.4618L32.903 24.3103C32.9028 24.3813 32.9167 24.4515 32.9437 24.5171C32.9707 24.5826 33.0104 24.6422 33.0605 24.6924C33.1106 24.7426 33.1701 24.7824 33.2356 24.8096C33.3011 24.8367 33.3713 24.8507 33.4422 24.8507H33.609C33.7518 24.8507 33.8888 24.7941 33.9899 24.6932C34.091 24.5923 34.148 24.4554 34.1483 24.3126L34.1594 18.464ZM45.2672 18.4118C45.2669 18.2512 45.2028 18.0972 45.0891 17.9838C44.9754 17.8704 44.8212 17.8068 44.6606 17.8069H44.6273C44.5477 17.8071 44.4689 17.8229 44.3955 17.8535C44.322 17.8841 44.2553 17.9288 44.1991 17.9852C44.1429 18.0416 44.0984 18.1084 44.0681 18.182C44.0378 18.2556 44.0223 18.3344 44.0224 18.414L44.0324 24.2403C44.0326 24.3199 44.0484 24.3986 44.079 24.4721C44.1096 24.5456 44.1543 24.6123 44.2107 24.6685C44.2671 24.7246 44.3339 24.7691 44.4075 24.7995C44.4811 24.8298 44.5599 24.8453 44.6395 24.8452H44.6729C44.7524 24.845 44.8312 24.8292 44.9047 24.7986C44.9781 24.768 45.0449 24.7233 45.101 24.6669C45.1572 24.6105 45.2017 24.5436 45.232 24.4701C45.2623 24.3965 45.2779 24.3177 45.2777 24.2381L45.2672 18.4118ZM48.6028 18.4018C48.6028 18.2411 48.539 18.0869 48.4253 17.9733C48.3117 17.8596 48.1576 17.7958 47.9968 17.7958H47.9635C47.8028 17.7958 47.6486 17.8596 47.535 17.9733C47.4214 18.0869 47.3575 18.2411 47.3575 18.4018V24.2725C47.3575 24.4333 47.4214 24.5874 47.535 24.701C47.6486 24.8147 47.8028 24.8785 47.9635 24.8785H47.9968C48.1576 24.8785 48.3117 24.8147 48.4253 24.701C48.539 24.5874 48.6028 24.4333 48.6028 24.2725V18.4018ZM56.3866 18.4062C56.3865 18.3266 56.3706 18.2479 56.34 18.1744C56.3095 18.1009 56.2647 18.0342 56.2083 17.9781C56.152 17.9219 56.0851 17.8774 56.0115 17.8471C55.9379 17.8167 55.8591 17.8012 55.7795 17.8014H55.7462C55.6666 17.8015 55.5878 17.8173 55.5143 17.8479C55.4409 17.8785 55.3741 17.9233 55.318 17.9796C55.2618 18.036 55.2173 18.1029 55.187 18.1765C55.1567 18.25 55.1411 18.3289 55.1413 18.4084L55.1513 24.1347C55.1514 24.2142 55.1673 24.293 55.1978 24.3665C55.2284 24.4399 55.2732 24.5067 55.3296 24.5628C55.3859 24.619 55.4528 24.6635 55.5264 24.6938C55.6 24.7242 55.6788 24.7397 55.7584 24.7395H55.7917C55.8713 24.7394 55.9501 24.7236 56.0235 24.693C56.097 24.6624 56.1637 24.6176 56.2199 24.5613C56.2761 24.5049 56.3206 24.438 56.3509 24.3644C56.3812 24.2909 56.3968 24.212 56.3966 24.1324L56.3866 18.4062ZM59.6967 18.359C59.6976 18.2867 59.6842 18.2149 59.6574 18.1478C59.6305 18.0807 59.5907 18.0196 59.5402 17.9678C59.4897 17.9161 59.4295 17.8748 59.3631 17.8464C59.2967 17.8179 59.2253 17.8028 59.153 17.8019L59.0863 17.8014C59.014 17.8005 58.9422 17.8138 58.8751 17.8407C58.808 17.8675 58.7468 17.9073 58.6951 17.9578C58.6434 18.0083 58.6021 18.0685 58.5736 18.1349C58.5452 18.2014 58.5301 18.2728 58.5292 18.3451L58.4569 24.2486C58.4561 24.3209 58.4694 24.3927 58.4963 24.4598C58.5231 24.5269 58.5629 24.5881 58.6134 24.6398C58.6639 24.6915 58.7241 24.7328 58.7905 24.7613C58.857 24.7897 58.9284 24.8048 59.0006 24.8057L59.0674 24.8063C59.1396 24.8071 59.2114 24.7938 59.2785 24.7669C59.3456 24.7401 59.4068 24.7003 59.4585 24.6498C59.5102 24.5993 59.5515 24.5391 59.58 24.4727C59.6084 24.4062 59.6235 24.3348 59.6244 24.2625L59.6967 18.359Z" stroke="#0885C9" stroke-width="2"/>
<path d="M42.8433 59.3581C42.8433 58.3128 42.428 57.3102 41.6888 56.571C40.9496 55.8318 39.947 55.4165 38.9016 55.4165C37.8562 55.4165 36.8536 55.8318 36.1144 56.571C35.3752 57.3102 34.96 58.3128 34.96 59.3581C34.96 60.4035 35.3752 61.4061 36.1144 62.1453C36.8536 62.8845 37.8562 63.2998 38.9016 63.2998C39.947 63.2998 40.9496 62.8845 41.6888 62.1453C42.428 61.4061 42.8433 60.4035 42.8433 59.3581Z" stroke="#84CEF6" stroke-width="2"/>
<path d="M56.3972 31.7122C56.3973 31.6362 56.3825 31.5609 56.3535 31.4906C56.3245 31.4204 56.2819 31.3565 56.2282 31.3027C56.1745 31.2489 56.1107 31.2062 56.0405 31.1771C55.9703 31.1479 55.895 31.1329 55.819 31.1329H55.73C55.6541 31.1328 55.5789 31.1476 55.5087 31.1765C55.4385 31.2054 55.3747 31.2479 55.3209 31.3015C55.2671 31.3551 55.2244 31.4187 55.1952 31.4888C55.166 31.5589 55.1509 31.6341 55.1507 31.71L55.1407 37.6253C55.1406 37.7012 55.1554 37.7764 55.1843 37.8466C55.2132 37.9168 55.2557 37.9806 55.3093 38.0344C55.3629 38.0882 55.4265 38.1309 55.4966 38.1601C55.5667 38.1893 55.6419 38.2044 55.7178 38.2045H55.8068C55.8827 38.2047 55.9579 38.1899 56.0281 38.161C56.0983 38.132 56.1621 38.0896 56.2159 38.036C56.2697 37.9824 56.3124 37.9187 56.3416 37.8487C56.3708 37.7786 56.3859 37.7034 56.386 37.6275L56.3961 31.7122M16.3525 31.7489C16.3522 31.5883 16.2882 31.4344 16.1744 31.321C16.0607 31.2075 15.9066 31.1439 15.746 31.1441H15.7126C15.633 31.1442 15.5543 31.16 15.4808 31.1906C15.4073 31.2212 15.3406 31.266 15.2845 31.3223C15.2283 31.3787 15.1838 31.4456 15.1535 31.5192C15.1231 31.5927 15.1076 31.6716 15.1078 31.7511L15.1178 37.5997C15.1179 37.6793 15.1337 37.758 15.1643 37.8315C15.1949 37.905 15.2397 37.9717 15.296 38.0278C15.3524 38.084 15.4193 38.1285 15.4929 38.1588C15.5664 38.1892 15.6453 38.2047 15.7249 38.2045H15.7582C15.8378 38.2045 15.9167 38.1887 15.9902 38.1582C16.0637 38.1276 16.1305 38.0829 16.1867 38.0265C16.243 37.9701 16.2875 37.9032 16.3179 37.8296C16.3482 37.756 16.3638 37.6771 16.3636 37.5975L16.3536 31.7489M70.835 31.7656C70.8347 31.6065 70.7713 31.4539 70.6586 31.3416C70.5459 31.2292 70.3932 31.1661 70.2341 31.1663H70.2007C70.1219 31.1664 70.0438 31.1821 69.971 31.2124C69.8982 31.2427 69.8321 31.2871 69.7765 31.3429C69.7208 31.3988 69.6767 31.4651 69.6467 31.538C69.6166 31.6109 69.6012 31.689 69.6014 31.7678L69.6114 37.5941C69.6116 37.673 69.6272 37.751 69.6575 37.8238C69.6878 37.8966 69.7322 37.9627 69.788 38.0184C69.8439 38.074 69.9102 38.1181 69.9831 38.1481C70.056 38.1782 70.1341 38.1936 70.2129 38.1934H70.2463C70.3251 38.1933 70.4032 38.1776 70.476 38.1473C70.5488 38.117 70.6149 38.0726 70.6705 38.0168C70.7262 37.9609 70.7703 37.8947 70.8003 37.8217C70.8304 37.7488 70.8457 37.6707 70.8456 37.5919L70.8356 31.7656M74.1707 31.7823C74.1704 31.6231 74.1069 31.4706 73.9942 31.3582C73.8816 31.2459 73.7289 31.1828 73.5697 31.183H73.5252C73.4464 31.1831 73.3684 31.1988 73.2956 31.2291C73.2228 31.2594 73.1567 31.3038 73.101 31.3596C73.0454 31.4155 73.0013 31.4817 72.9712 31.5546C72.9412 31.6276 72.9258 31.7057 72.9259 31.7845L72.9359 37.5997C72.9361 37.6785 72.9518 37.7566 72.9821 37.8294C73.0124 37.9022 73.0567 37.9683 73.1126 38.0239C73.1684 38.0796 73.2347 38.1237 73.3076 38.1537C73.3805 38.1837 73.4586 38.1991 73.5375 38.199H73.582C73.6608 38.1988 73.7389 38.1832 73.8116 38.1529C73.8844 38.1225 73.9505 38.0782 74.0062 38.0223C74.0618 37.9665 74.1059 37.9002 74.136 37.8273C74.166 37.7544 74.1814 37.6763 74.1813 37.5975L74.1713 31.7823M27.477 31.7334C27.477 31.5771 27.4149 31.4272 27.3044 31.3167C27.1938 31.2061 27.0439 31.1441 26.8877 31.1441H26.8209C26.6646 31.1441 26.5148 31.2061 26.4042 31.3167C26.2937 31.4272 26.2316 31.5771 26.2316 31.7334V37.6152C26.2316 37.7715 26.2937 37.9214 26.4042 38.0319C26.5148 38.1425 26.6646 38.2045 26.8209 38.2045H26.8877C27.0439 38.2045 27.1938 38.1425 27.3044 38.0319C27.4149 37.9214 27.477 37.7715 27.477 37.6152V31.7334ZM30.8293 31.6789C30.8294 31.6116 30.8163 31.545 30.7907 31.4828C30.765 31.4206 30.7274 31.3641 30.6799 31.3165C30.6324 31.2689 30.5759 31.2311 30.5138 31.2053C30.4517 31.1796 30.3851 31.1663 30.3178 31.1663H30.0843C29.9489 31.1663 29.8189 31.22 29.7231 31.3157C29.6272 31.4114 29.5732 31.5412 29.5729 31.6766L29.5617 37.5919C29.5616 37.6592 29.5747 37.7258 29.6004 37.788C29.626 37.8501 29.6637 37.9067 29.7112 37.9543C29.7587 38.0019 29.8151 38.0397 29.8772 38.0654C29.9393 38.0912 30.006 38.1045 30.0732 38.1045H30.3067C30.4422 38.1045 30.5721 38.0507 30.668 37.9551C30.7639 37.8594 30.8179 37.7296 30.8182 37.5941L30.8293 31.6789ZM34.1483 31.7C34.1483 31.582 34.1014 31.4689 34.018 31.3855C33.9346 31.3021 33.8215 31.2552 33.7035 31.2552H33.3477C33.2298 31.2552 33.1166 31.3021 33.0332 31.3855C32.9498 31.4689 32.903 31.582 32.903 31.7V37.7375C32.903 37.8555 32.9498 37.9686 33.0332 38.052C33.1166 38.1354 33.2298 38.1823 33.3477 38.1823H33.7035C33.8215 38.1823 33.9346 38.1354 34.018 38.052C34.1014 37.9686 34.1483 37.8555 34.1483 37.7375V31.7ZM59.7228 31.635C59.7254 31.5127 59.6792 31.3944 59.5946 31.3061C59.5099 31.2178 59.3937 31.1667 59.2714 31.1641L59.0268 31.1585C58.9662 31.1573 58.9059 31.168 58.8495 31.19C58.793 31.212 58.7414 31.245 58.6977 31.2869C58.654 31.3289 58.6189 31.3791 58.5946 31.4346C58.5703 31.4901 58.5571 31.5499 58.5559 31.6105L58.4308 37.5913C58.4283 37.7136 58.4744 37.8319 58.5591 37.9202C58.6437 38.0085 58.7599 38.0596 58.8822 38.0622L59.1268 38.0678C59.1874 38.069 59.2477 38.0583 59.3042 38.0363C59.3606 38.0143 59.4122 37.9813 59.4559 37.9393C59.4997 37.8974 59.5347 37.8472 59.559 37.7917C59.5833 37.7362 59.5965 37.6764 59.5977 37.6158L59.7228 31.635ZM63.0618 31.7356C63.0621 31.6604 63.0476 31.5859 63.0191 31.5163C62.9906 31.4467 62.9487 31.3834 62.8957 31.33C62.8427 31.2766 62.7798 31.2342 62.7104 31.2052C62.641 31.1761 62.5666 31.161 62.4914 31.1607H62.4581C62.3829 31.1604 62.3084 31.175 62.2388 31.2035C62.1692 31.232 62.1059 31.2739 62.0525 31.3269C61.9991 31.3798 61.9567 31.4428 61.9277 31.5122C61.8986 31.5815 61.8835 31.6559 61.8832 31.7311L61.8632 37.6019C61.8629 37.6771 61.8774 37.7516 61.9059 37.8212C61.9344 37.8908 61.9764 37.9541 62.0294 38.0075C62.0823 38.0608 62.1453 38.1033 62.2146 38.1323C62.284 38.1614 62.3584 38.1765 62.4336 38.1767H62.467C62.5422 38.177 62.6167 38.1625 62.6863 38.134C62.7558 38.1055 62.8191 38.0636 62.8725 38.0106C62.9259 37.9576 62.9683 37.8947 62.9974 37.8253C63.0264 37.7559 63.0415 37.6815 63.0418 37.6063L63.0618 31.7356ZM13.0335 31.7734C13.0337 31.6938 13.0181 31.6149 12.9878 31.5413C12.9574 31.4677 12.9129 31.4008 12.8566 31.3444C12.8004 31.288 12.7336 31.2432 12.6601 31.2127C12.5866 31.1821 12.5077 31.1664 12.4281 31.1663H12.3947C12.3152 31.1661 12.2363 31.1817 12.1628 31.212C12.0892 31.2423 12.0223 31.2868 11.9659 31.343C11.9096 31.3992 11.8648 31.4659 11.8342 31.5393C11.8036 31.6128 11.7878 31.6916 11.7877 31.7712L11.7776 37.5975C11.7775 37.677 11.793 37.7559 11.8234 37.8294C11.8537 37.903 11.8982 37.9699 11.9544 38.0263C12.0105 38.0826 12.0772 38.1274 12.1507 38.158C12.2242 38.1886 12.3029 38.2044 12.3825 38.2045H12.4159C12.4955 38.2047 12.5743 38.1892 12.6479 38.1588C12.7214 38.1285 12.7883 38.084 12.8447 38.0278C12.9011 37.9717 12.9458 37.905 12.9764 37.8315C13.007 37.758 13.0228 37.6793 13.023 37.5997L13.0335 31.7734ZM19.6993 31.7067C19.6994 31.6387 19.6862 31.5714 19.6603 31.5086C19.6344 31.4458 19.5964 31.3887 19.5485 31.3406C19.5005 31.2924 19.4435 31.2542 19.3808 31.2282C19.318 31.2021 19.2508 31.1886 19.1828 31.1885H18.9716C18.9037 31.1884 18.8364 31.2016 18.7736 31.2275C18.7108 31.2533 18.6538 31.2913 18.6056 31.3392C18.5575 31.3871 18.5193 31.444 18.4932 31.5067C18.4671 31.5693 18.4536 31.6365 18.4534 31.7044L18.4434 37.6753C18.4433 37.7432 18.4565 37.8104 18.4824 37.8732C18.5082 37.936 18.5462 37.9931 18.5941 38.0412C18.642 38.0893 18.6989 38.1275 18.7616 38.1536C18.8242 38.1798 18.8914 38.1933 18.9593 38.1934H19.1706C19.2385 38.1936 19.3058 38.1803 19.3685 38.1545C19.4313 38.1286 19.4884 38.0907 19.5365 38.0428C19.5846 37.9949 19.6228 37.938 19.649 37.8753C19.6751 37.8126 19.6886 37.7454 19.6887 37.6775L19.6993 31.7067ZM41.9371 31.7445C41.9371 31.5838 41.8732 31.4296 41.7596 31.316C41.6459 31.2023 41.4918 31.1385 41.3311 31.1385H41.2977C41.137 31.1385 40.9829 31.2023 40.8692 31.316C40.7556 31.4296 40.6917 31.5838 40.6917 31.7445V37.593C40.6917 37.7537 40.7556 37.9079 40.8692 38.0215C40.9829 38.1351 41.137 38.199 41.2977 38.199H41.3311C41.4918 38.199 41.6459 38.1351 41.7596 38.0215C41.8732 37.9079 41.9371 37.7537 41.9371 37.593V31.7445ZM45.2616 31.7044C45.2613 31.5601 45.2038 31.4218 45.1016 31.3199C44.9995 31.218 44.8611 31.1607 44.7168 31.1607H44.5611C44.4895 31.1607 44.4185 31.1749 44.3524 31.2023C44.2862 31.2298 44.2261 31.27 44.1755 31.3207C44.1249 31.3714 44.0848 31.4316 44.0574 31.4978C44.0301 31.5641 44.0161 31.635 44.0163 31.7067L44.0274 37.5663C44.0277 37.7106 44.0852 37.8489 44.1874 37.9509C44.2895 38.0528 44.4279 38.11 44.5722 38.11H44.7279C44.7995 38.11 44.8705 38.0959 44.9367 38.0685C45.0028 38.041 45.0629 38.0008 45.1135 37.9501C45.1641 37.8994 45.2043 37.8392 45.2316 37.7729C45.2589 37.7067 45.2729 37.6357 45.2727 37.5641L45.2616 31.7044ZM48.6028 31.75C48.6028 31.5893 48.539 31.4352 48.4253 31.3215C48.3117 31.2079 48.1576 31.1441 47.9968 31.1441H47.9635C47.8028 31.1441 47.6486 31.2079 47.535 31.3215C47.4214 31.4352 47.3575 31.5893 47.3575 31.75V37.6097C47.3575 37.7704 47.4214 37.9245 47.535 38.0382C47.6486 38.1518 47.8028 38.2157 47.9635 38.2157H47.9968C48.1576 38.2157 48.3117 38.1518 48.4253 38.0382C48.539 37.9245 48.6028 37.7704 48.6028 37.6097V31.75ZM77.5119 31.7C77.5119 31.582 77.4651 31.4689 77.3817 31.3855C77.2983 31.3021 77.1851 31.2552 77.0672 31.2552H76.7114C76.5934 31.2552 76.4803 31.3021 76.3969 31.3855C76.3135 31.4689 76.2666 31.582 76.2666 31.7V37.7375C76.2666 37.8555 76.3135 37.9686 76.3969 38.052C76.4803 38.1354 76.5934 38.1823 76.7114 38.1823H77.0672C77.1851 38.1823 77.2983 38.1354 77.3817 38.052C77.4651 37.9686 77.5119 37.8555 77.5119 37.7375V31.7Z" stroke="#0885C9" stroke-width="2"/>
<path d="M39.5576 58.6576L39.8467 57.5958C39.8638 57.5295 39.8541 57.4591 39.8198 57.3998C39.7855 57.3406 39.7293 57.2971 39.6633 57.2789C37.9009 56.8286 36.5889 57.6458 36.7112 59.5416C36.9113 62.5215 41.131 62.0211 41.181 59.5472C41.1884 59.3322 41.0828 59.221 40.8641 59.2136L39.9524 59.1914C39.8885 59.1894 39.8259 59.173 39.7693 59.1434C39.7127 59.1137 39.6635 59.0716 39.6255 59.0203C39.5875 58.9689 39.5617 58.9096 39.5499 58.8468C39.5381 58.7839 39.5408 58.7193 39.5576 58.6576Z" stroke="#83B6D2" stroke-width="2"/>
<path d="M103.18 29.7264C108.45 28.9425 114.338 29.3317 118.513 32.9675C118.676 33.1047 118.717 33.2733 118.635 33.4734C115.47 41.4865 109.458 45.2261 100.6 44.6924C100.524 44.6879 100.448 44.7075 100.383 44.7483C100.318 44.7892 100.268 44.8494 100.239 44.9203C89.4647 71.3332 64.6474 83.8086 37.0392 82.7468C23.9634 82.2464 12.2719 77.4208 5.55053 65.6459C1.27717 58.1555 -0.407338 49.8756 0.496997 40.8063C0.513572 40.6317 0.59505 40.4696 0.725564 40.3514C0.856079 40.2332 1.02629 40.1675 1.20305 40.167H7.05158C7.23689 40.167 7.32955 40.0744 7.32955 39.889V27.1023C7.32955 26.917 7.42221 26.8244 7.60752 26.8244H21.3671C21.4777 26.8244 21.5838 26.7804 21.662 26.7022C21.7402 26.624 21.7841 26.518 21.7841 26.4074V13.7597C21.7841 13.5744 21.8768 13.4817 22.0621 13.4817H50.2762C50.3868 13.4817 50.4929 13.4378 50.5711 13.3596C50.6493 13.2814 50.6932 13.1753 50.6932 13.0647V0.41701C50.6932 0.231695 50.7858 0.139038 50.9712 0.139038H67.0935C67.3715 0.139038 67.5105 0.278024 67.5105 0.555996V26.5464C67.5105 26.6201 67.5398 26.6908 67.5919 26.7429C67.644 26.7951 67.7147 26.8244 67.7885 26.8244H81.6871C81.8724 26.8244 81.965 26.917 81.965 27.1023V39.889C81.965 39.9241 81.9721 39.9588 81.986 39.9909C81.9999 40.0231 82.0202 40.0521 82.0457 40.076C82.0713 40.1 82.1015 40.1185 82.1345 40.1303C82.1674 40.1421 82.2025 40.1471 82.2374 40.1448C84.8244 39.9965 87.3095 39.4276 89.6927 38.438C89.7352 38.4202 89.7735 38.3937 89.8053 38.3603C89.837 38.3269 89.8615 38.2872 89.8772 38.2439C89.8929 38.2005 89.8994 38.1544 89.8963 38.1084C89.8933 38.0624 89.8807 38.0175 89.8594 37.9766C86.1791 30.8383 87.5134 22.7104 92.3556 16.5227C92.4705 16.3782 92.6095 16.3504 92.7726 16.4393C98.0615 19.308 101.427 23.6666 102.869 29.5151C102.909 29.6819 103.013 29.7523 103.18 29.7264ZM65.1555 2.99159C65.1554 2.89584 65.1172 2.80407 65.0495 2.73642C64.9817 2.66878 64.8899 2.63078 64.7942 2.63078L53.4084 2.65079C53.3609 2.65079 53.3139 2.66016 53.27 2.67835C53.2261 2.69655 53.1863 2.72322 53.1527 2.75683C53.1191 2.79045 53.0925 2.83035 53.0744 2.87425C53.0563 2.91816 53.047 2.96521 53.047 3.01271L53.0648 13.0531C53.065 13.1488 53.1031 13.2406 53.1709 13.3082C53.2386 13.3759 53.3305 13.4139 53.4262 13.4139L64.8119 13.3939C64.8594 13.3939 64.9065 13.3845 64.9504 13.3663C64.9942 13.3481 65.0341 13.3214 65.0677 13.2878C65.1012 13.2542 65.1278 13.2143 65.146 13.1704C65.1641 13.1265 65.1734 13.0794 65.1733 13.0319L65.1555 2.99159ZM36.2297 16.3342C36.2296 16.2385 36.1915 16.1467 36.1237 16.0791C36.056 16.0114 35.9641 15.9734 35.8684 15.9734L24.5049 15.9935C24.4574 15.9935 24.4103 16.0028 24.3665 16.021C24.3226 16.0392 24.2827 16.0659 24.2492 16.0995C24.2156 16.1331 24.189 16.173 24.1709 16.2169C24.1527 16.2608 24.1434 16.3079 24.1435 16.3554L24.1613 26.4068C24.1615 26.5026 24.1996 26.5944 24.2673 26.662C24.3351 26.7297 24.4269 26.7676 24.5227 26.7676L35.8862 26.7476C35.9337 26.7476 35.9807 26.7383 36.0246 26.7201C36.0685 26.7019 36.1083 26.6752 36.1419 26.6416C36.1755 26.608 36.2021 26.5681 36.2202 26.5242C36.2383 26.4803 36.2476 26.4332 36.2475 26.3857L36.2297 16.3342ZM50.6954 16.3454C50.6953 16.2481 50.6565 16.155 50.5877 16.0863C50.5189 16.0176 50.4257 15.979 50.3285 15.979L38.9427 15.999C38.8945 15.999 38.8468 16.0085 38.8022 16.027C38.7576 16.0455 38.7172 16.0725 38.6831 16.1067C38.649 16.1408 38.622 16.1813 38.6036 16.2259C38.5852 16.2705 38.5758 16.3183 38.5758 16.3665L38.5936 26.3957C38.5938 26.4929 38.6325 26.5861 38.7013 26.6548C38.7701 26.7235 38.8633 26.7621 38.9605 26.7621L50.3463 26.7421C50.3945 26.7421 50.4423 26.7326 50.4868 26.7141C50.5314 26.6956 50.5718 26.6685 50.6059 26.6344C50.64 26.6003 50.667 26.5598 50.6854 26.5152C50.7038 26.4706 50.7133 26.4228 50.7132 26.3746L50.6954 16.3454ZM65.1689 16.2675C65.1684 16.188 65.1364 16.1119 65.0799 16.0559C65.0234 16 64.9471 15.9687 64.8675 15.969L53.315 16.009C53.2756 16.0092 53.2366 16.0171 53.2002 16.0323C53.1638 16.0475 53.1308 16.0698 53.1031 16.0977C53.0753 16.1257 53.0533 16.1589 53.0383 16.1954C53.0234 16.2318 53.0158 16.2709 53.0159 16.3103L53.0515 26.5175C53.0516 26.5569 53.0596 26.5959 53.0748 26.6323C53.09 26.6686 53.1122 26.7017 53.1402 26.7294C53.1682 26.7572 53.2014 26.7792 53.2378 26.7941C53.2743 26.8091 53.3134 26.8167 53.3528 26.8166L64.9053 26.7765C64.9448 26.7764 64.9838 26.7685 65.0201 26.7533C65.0565 26.738 65.0895 26.7158 65.1173 26.6878C65.1451 26.6598 65.1671 26.6267 65.182 26.5902C65.197 26.5537 65.2046 26.5146 65.2044 26.4752L65.1689 16.2675ZM31.6021 66.7078C25.5571 70.0027 19.236 71.3481 12.6388 70.7439C12.6071 70.7403 12.5751 70.7469 12.5474 70.7627C12.5197 70.7785 12.4978 70.8027 12.4848 70.8318C12.4718 70.861 12.4684 70.8935 12.4751 70.9246C12.4818 70.9558 12.4982 70.984 12.5221 71.0052C21.9453 79.7891 35.3047 81.6738 47.8801 79.9003C55.6003 79.3333 62.8535 77.456 69.6398 74.2686C83.5495 67.7307 92.6558 56.8287 98.6712 42.5576C98.703 42.4787 98.7603 42.4122 98.8344 42.3682C98.9085 42.3241 98.9956 42.3047 99.0826 42.313C106.004 42.9412 112.598 41.0065 115.583 34.2629C115.653 34.0998 115.622 33.9608 115.488 33.8459C112.247 30.9995 104.842 31.6277 100.923 32.7118C100.745 32.7637 100.65 32.697 100.639 32.5117C100.365 27.0226 97.9614 22.7715 93.4286 19.7583C93.2581 19.6434 93.1173 19.6712 93.0061 19.8417C89.4592 25.3011 88.7642 33.2511 93.2563 38.4158C93.3007 38.466 93.3338 38.5252 93.3533 38.5894C93.3728 38.6536 93.3783 38.7212 93.3693 38.7877C93.3603 38.8541 93.3372 38.9179 93.3013 38.9746C93.2655 39.0313 93.2179 39.0796 93.1618 39.1163C89.8076 41.3326 86.0716 42.4445 81.9539 42.4519C55.6578 42.5038 29.3412 42.5353 3.00431 42.5465C2.81158 42.5465 2.70965 42.6428 2.69854 42.8355C2.17224 51.5824 4.29224 59.5806 9.05854 66.8301C9.69787 67.803 10.5763 68.1199 11.6492 68.2533C18.1908 69.0613 24.3785 67.8771 30.2122 64.7008C30.4086 64.5933 30.5569 64.6378 30.657 64.8343L31.6021 66.7078ZM36.2386 29.554C36.2386 29.4906 36.2135 29.4298 36.1686 29.385C36.1238 29.3402 36.063 29.315 35.9996 29.315H24.3915C24.3281 29.315 24.2673 29.3402 24.2224 29.385C24.1776 29.4298 24.1524 29.4906 24.1524 29.554V39.7945C24.1524 39.8579 24.1776 39.9187 24.2224 39.9636C24.2673 40.0084 24.3281 40.0336 24.3915 40.0336H35.9996C36.063 40.0336 36.1238 40.0084 36.1686 39.9636C36.2135 39.9187 36.2386 39.8579 36.2386 39.7945V29.554ZM65.1711 29.5085C65.1712 29.4555 65.1504 29.4046 65.1131 29.367C65.0757 29.3293 65.025 29.3081 64.9721 29.3078L53.275 29.2666C53.2487 29.2665 53.2226 29.2717 53.1982 29.2817C53.1739 29.2917 53.1518 29.3064 53.1331 29.325C53.1145 29.3436 53.0997 29.3657 53.0896 29.39C53.0795 29.4144 53.0743 29.4404 53.0743 29.4668L53.0382 39.8401C53.038 39.8931 53.0589 39.944 53.0962 39.9816C53.1335 40.0192 53.1842 40.0405 53.2372 40.0408L64.9342 40.082C64.9606 40.082 64.9867 40.0769 65.011 40.0669C65.0354 40.0569 65.0575 40.0421 65.0761 40.0235C65.0948 40.0049 65.1096 39.9829 65.1197 39.9585C65.1298 39.9342 65.1349 39.9081 65.1349 39.8818L65.1711 29.5085ZM21.793 29.5924C21.793 29.526 21.7666 29.4624 21.7197 29.4155C21.6728 29.3686 21.6092 29.3422 21.5428 29.3422L9.95694 29.3217C9.89069 29.3217 9.82714 29.3479 9.78024 29.3947C9.73334 29.4415 9.70691 29.505 9.70677 29.5713L9.68898 39.7784C9.68898 39.8448 9.71533 39.9084 9.76225 39.9553C9.80917 40.0022 9.8728 40.0286 9.93915 40.0286L21.525 40.0492C21.5913 40.0492 21.6548 40.0229 21.7017 39.9761C21.7486 39.9293 21.7751 39.8658 21.7752 39.7995L21.793 29.5924ZM50.6965 29.6647C50.6966 29.6223 50.6883 29.5803 50.6721 29.5411C50.656 29.5019 50.6322 29.4663 50.6023 29.4363C50.5723 29.4063 50.5368 29.3825 50.4976 29.3663C50.4584 29.35 50.4165 29.3417 50.3741 29.3417L38.9327 29.3217C38.8473 29.3217 38.7654 29.3555 38.7049 29.4159C38.6445 29.4762 38.6104 29.5581 38.6103 29.6435L38.5925 39.7061C38.5924 39.7485 38.6007 39.7905 38.6169 39.8297C38.6331 39.8689 38.6568 39.9045 38.6867 39.9345C38.7167 39.9645 38.7523 39.9883 38.7914 40.0045C38.8306 40.0208 38.8726 40.0291 38.915 40.0291L50.3563 40.0492C50.4417 40.0492 50.5236 40.0153 50.5841 39.9549C50.6445 39.8946 50.6786 39.8127 50.6787 39.7273L50.6965 29.6647ZM79.5967 29.5151C79.5967 29.4665 79.5774 29.4198 79.543 29.3854C79.5086 29.351 79.4619 29.3317 79.4133 29.3317H67.6828C67.6342 29.3317 67.5875 29.351 67.5531 29.3854C67.5187 29.4198 67.4994 29.4665 67.4994 29.5151V39.8557C67.4994 39.9043 67.5187 39.951 67.5531 39.9854C67.5875 40.0198 67.6342 40.0391 67.6828 40.0391H79.4133C79.4619 40.0391 79.5086 40.0198 79.543 39.9854C79.5774 39.951 79.5967 39.9043 79.5967 39.8557V29.5151Z" fill="#066DA5"/>
<path d="M65.1733 13.0319C65.1734 13.0794 65.1641 13.1264 65.146 13.1704C65.1278 13.2143 65.1012 13.2542 65.0677 13.2878C65.0341 13.3214 64.9942 13.3481 64.9504 13.3663C64.9065 13.3844 64.8594 13.3938 64.8119 13.3938L53.4262 13.4138C53.3305 13.4138 53.2386 13.3758 53.1709 13.3082C53.1031 13.2405 53.065 13.1488 53.0649 13.053L53.0471 3.01267C53.047 2.96517 53.0563 2.91812 53.0744 2.87421C53.0925 2.83031 53.1191 2.7904 53.1527 2.75679C53.1863 2.72317 53.2261 2.69651 53.27 2.67831C53.3139 2.66012 53.3609 2.65075 53.4084 2.65075L64.7942 2.63074C64.8899 2.63074 64.9817 2.66873 65.0495 2.73638C65.1172 2.80403 65.1554 2.8958 65.1555 2.99155L65.1733 13.0319ZM56.3966 5.11025C56.3968 5.03067 56.3812 4.95184 56.3509 4.87826C56.3206 4.80469 56.2761 4.7378 56.2199 4.68143C56.1638 4.62506 56.097 4.5803 56.0236 4.54971C55.9501 4.51912 55.8713 4.5033 55.7918 4.50316H55.7584C55.6788 4.50301 55.6 4.51854 55.5264 4.54886C55.4528 4.57918 55.386 4.62369 55.3296 4.67986C55.2732 4.73602 55.2285 4.80274 55.1979 4.87621C55.1673 4.94967 55.1515 5.02845 55.1513 5.10802L55.1413 10.8676C55.1412 10.9472 55.1567 11.026 55.187 11.0996C55.2173 11.1732 55.2618 11.24 55.318 11.2964C55.3742 11.3528 55.4409 11.3976 55.5144 11.4281C55.5878 11.4587 55.6666 11.4745 55.7462 11.4747H55.7795C55.8591 11.4748 55.9379 11.4593 56.0115 11.429C56.0851 11.3987 56.152 11.3542 56.2083 11.298C56.2647 11.2418 56.3095 11.1751 56.3401 11.1016C56.3706 11.0282 56.3865 10.9494 56.3866 10.8698L56.3966 5.11025ZM59.7217 5.15917C59.7217 5.00288 59.6596 4.85299 59.5491 4.74247C59.4386 4.63196 59.2887 4.56987 59.1324 4.56987H59.0768C58.9205 4.56987 58.7706 4.63196 58.6601 4.74247C58.5496 4.85299 58.4875 5.00288 58.4875 5.15917V10.8965C58.4875 11.0528 58.5496 11.2027 58.6601 11.3132C58.7706 11.4237 58.9205 11.4858 59.0768 11.4858H59.1324C59.2887 11.4858 59.4386 11.4237 59.5491 11.3132C59.6596 11.2027 59.7217 11.0528 59.7217 10.8965V5.15917ZM63.0429 5.12025C63.0415 4.97595 62.9828 4.83812 62.8798 4.73702C62.7768 4.63592 62.638 4.5798 62.4937 4.58099L62.3491 4.58155C62.2775 4.58213 62.2067 4.59681 62.1408 4.62477C62.0749 4.65272 62.0152 4.69339 61.965 4.74446C61.9148 4.79552 61.8751 4.85598 61.8483 4.92237C61.8215 4.98876 61.8081 5.05978 61.8087 5.13137L61.8599 10.9354C61.8614 11.0797 61.92 11.2176 62.023 11.3187C62.126 11.4198 62.2649 11.4759 62.4092 11.4747L62.5537 11.4741C62.6253 11.4735 62.696 11.4587 62.7618 11.4308C62.8277 11.4028 62.8874 11.3621 62.9375 11.311C62.9876 11.26 63.0272 11.1995 63.054 11.1332C63.0807 11.0668 63.0942 10.9959 63.0935 10.9243L63.0429 5.12025Z" fill="#099CEC"/>
<path d="M55.7917 4.50319L55.7583 4.50313C55.4236 4.50255 55.1519 4.77338 55.1513 5.10805L55.1412 10.8676C55.1406 11.2023 55.4115 11.4741 55.7462 11.4747L55.7795 11.4747C56.1142 11.4753 56.386 11.2045 56.3865 10.8698L56.3966 5.11023C56.3972 4.77555 56.1264 4.50378 55.7917 4.50319Z" fill="#066DA5"/>
<path d="M59.1324 4.56982H59.0768C58.7514 4.56982 58.4875 4.83366 58.4875 5.15912V10.8965C58.4875 11.2219 58.7514 11.4858 59.0768 11.4858H59.1324C59.4579 11.4858 59.7217 11.2219 59.7217 10.8965V5.15912C59.7217 4.83366 59.4579 4.56982 59.1324 4.56982Z" fill="#066DA5"/>
<path d="M62.4936 4.58041L62.3491 4.58167C62.0482 4.5843 61.8064 4.83034 61.809 5.13123L61.8597 10.9351C61.8623 11.236 62.1083 11.4777 62.4092 11.4751L62.5538 11.4739C62.8547 11.4712 63.0964 11.2252 63.0938 10.9243L63.0432 5.12046C63.0405 4.81957 62.7945 4.57778 62.4936 4.58041Z" fill="#066DA5"/>
<path d="M36.2476 26.3857C36.2476 26.4332 36.2383 26.4803 36.2202 26.5242C36.2021 26.5681 36.1755 26.608 36.1419 26.6416C36.1084 26.6752 36.0685 26.7019 36.0246 26.7201C35.9807 26.7383 35.9337 26.7476 35.8862 26.7476L24.5227 26.7677C24.427 26.7677 24.3351 26.7297 24.2674 26.662C24.1996 26.5944 24.1615 26.5026 24.1613 26.4068L24.1436 16.3554C24.1435 16.3079 24.1528 16.2608 24.1709 16.2169C24.189 16.173 24.2156 16.1331 24.2492 16.0995C24.2828 16.0659 24.3226 16.0392 24.3665 16.021C24.4104 16.0028 24.4574 15.9935 24.5049 15.9935L35.8684 15.9734C35.9642 15.9734 36.056 16.0114 36.1237 16.0791C36.1915 16.1467 36.2296 16.2385 36.2298 16.3343L36.2476 26.3857ZM27.4876 18.453C27.4877 18.3734 27.4722 18.2945 27.4419 18.221C27.4115 18.1474 27.367 18.0805 27.3109 18.0241C27.2547 17.9678 27.188 17.923 27.1145 17.8924C27.041 17.8618 26.9623 17.846 26.8827 17.8459H26.8493C26.7698 17.8457 26.6909 17.8612 26.6174 17.8916C26.5438 17.9219 26.4769 17.9664 26.4205 18.0226C26.3641 18.0787 26.3194 18.1455 26.2888 18.2189C26.2582 18.2924 26.2424 18.3712 26.2422 18.4507L26.2322 24.2103C26.2321 24.2899 26.2476 24.3687 26.2779 24.4423C26.3083 24.5159 26.3528 24.5828 26.4089 24.6391C26.4651 24.6955 26.5318 24.7403 26.6053 24.7709C26.6788 24.8014 26.7575 24.8173 26.8371 24.8174H26.8705C26.95 24.8175 27.0289 24.802 27.1024 24.7717C27.176 24.7414 27.2429 24.6969 27.2993 24.6407C27.3557 24.5845 27.4004 24.5178 27.431 24.4443C27.4616 24.3709 27.4774 24.2921 27.4775 24.2125L27.4876 18.453ZM30.8232 18.4596C30.8235 18.38 30.8081 18.3011 30.7779 18.2274C30.7477 18.1538 30.7032 18.0868 30.6471 18.0303C30.591 17.9738 30.5243 17.9289 30.4508 17.8982C30.3773 17.8676 30.2985 17.8516 30.2189 17.8514H30.1856C30.106 17.8511 30.0271 17.8665 29.9535 17.8967C29.8798 17.9269 29.8129 17.9713 29.7564 18.0273C29.6999 18.0834 29.6551 18.15 29.6243 18.2234C29.5936 18.2969 29.5776 18.3756 29.5773 18.4552L29.5573 24.2592C29.557 24.3388 29.5724 24.4177 29.6026 24.4913C29.6328 24.5649 29.6772 24.6319 29.7332 24.6884C29.7893 24.7449 29.856 24.7897 29.9294 24.8205C30.0028 24.8512 30.0815 24.8671 30.1611 24.8674H30.1945C30.274 24.8677 30.3529 24.8523 30.4265 24.8222C30.5001 24.792 30.5671 24.7476 30.6236 24.6915C30.6801 24.6355 30.7249 24.5688 30.7557 24.4954C30.7864 24.422 30.8024 24.3433 30.8027 24.2637L30.8227 18.4596H30.8232ZM34.1589 18.4641C34.159 18.3933 34.1452 18.3231 34.1183 18.2576C34.0913 18.1921 34.0517 18.1326 34.0017 18.0824C33.9517 18.0323 33.8924 17.9924 33.827 17.9652C33.7616 17.9379 33.6915 17.9238 33.6207 17.9237H33.4539C33.3831 17.9236 33.313 17.9374 33.2475 17.9643C33.182 17.9913 33.1225 18.0309 33.0723 18.0809C33.0221 18.1308 32.9823 18.1902 32.955 18.2556C32.9278 18.3209 32.9137 18.391 32.9136 18.4619L32.9036 24.3104C32.9034 24.3812 32.9172 24.4514 32.9442 24.5168C32.9711 24.5823 33.0108 24.6418 33.0607 24.692C33.1107 24.7422 33.1701 24.782 33.2354 24.8093C33.3008 24.8365 33.3709 24.8506 33.4417 24.8508H33.6085C33.6793 24.8509 33.7495 24.8371 33.8149 24.8101C33.8804 24.7832 33.94 24.7436 33.9901 24.6936C34.0403 24.6436 34.0802 24.5843 34.1074 24.5189C34.1346 24.4535 34.1487 24.3834 34.1489 24.3126L34.1589 18.4641ZM50.7132 26.3746C50.7133 26.4228 50.7039 26.4706 50.6855 26.5152C50.6671 26.5598 50.64 26.6003 50.606 26.6344C50.5719 26.6685 50.5314 26.6956 50.4868 26.7141C50.4423 26.7326 50.3945 26.7421 50.3463 26.7421L38.9606 26.7621C38.8634 26.7621 38.7701 26.7235 38.7013 26.6548C38.6325 26.5861 38.5938 26.4929 38.5936 26.3957L38.5759 16.3665C38.5758 16.3183 38.5852 16.2705 38.6036 16.2259C38.622 16.1813 38.6491 16.1408 38.6831 16.1067C38.7172 16.0726 38.7577 16.0455 38.8022 16.027C38.8468 16.0085 38.8946 15.999 38.9428 15.999L50.3285 15.979C50.4257 15.979 50.519 16.0176 50.5878 16.0863C50.6566 16.155 50.6953 16.2482 50.6954 16.3454L50.7132 26.3746ZM41.9365 18.414C41.9367 18.3345 41.9212 18.2556 41.8908 18.1821C41.8605 18.1085 41.816 18.0416 41.7598 17.9852C41.7037 17.9288 41.637 17.8841 41.5635 17.8535C41.49 17.8229 41.4113 17.8071 41.3317 17.8069H41.2983C41.2187 17.8068 41.1399 17.8223 41.0663 17.8526C40.9928 17.883 40.9259 17.9275 40.8695 17.9836C40.8131 18.0398 40.7684 18.1065 40.7378 18.18C40.7072 18.2535 40.6914 18.3322 40.6912 18.4118L40.6812 24.2492C40.6811 24.3288 40.6966 24.4076 40.7269 24.4812C40.7572 24.5548 40.8018 24.6217 40.8579 24.678C40.9141 24.7344 40.9808 24.7792 41.0543 24.8098C41.1277 24.8404 41.2065 24.8562 41.2861 24.8563H41.3194C41.399 24.8565 41.4778 24.8409 41.5514 24.8106C41.625 24.7803 41.6919 24.7358 41.7483 24.6796C41.8046 24.6234 41.8494 24.5567 41.88 24.4833C41.9106 24.4098 41.9264 24.331 41.9265 24.2515L41.9365 18.414ZM45.2678 18.4118C45.2676 18.3322 45.2518 18.2535 45.2212 18.18C45.1906 18.1065 45.1459 18.0398 45.0895 17.9836C45.0331 17.9275 44.9662 17.883 44.8927 17.8526C44.8191 17.8223 44.7402 17.8068 44.6607 17.8069H44.6273C44.5477 17.8071 44.469 17.8229 44.3955 17.8535C44.322 17.8841 44.2553 17.9288 44.1991 17.9852C44.143 18.0416 44.0985 18.1085 44.0681 18.1821C44.0378 18.2556 44.0223 18.3345 44.0224 18.414L44.0324 24.2403C44.0326 24.3199 44.0484 24.3987 44.079 24.4721C44.1096 24.5456 44.1543 24.6123 44.2107 24.6685C44.2671 24.7247 44.334 24.7692 44.4076 24.7995C44.4811 24.8298 44.56 24.8453 44.6395 24.8452H44.6729C44.7525 24.8451 44.8312 24.8292 44.9047 24.7986C44.9782 24.7681 45.0449 24.7233 45.1011 24.6669C45.1572 24.6106 45.2017 24.5437 45.2321 24.4701C45.2624 24.3965 45.2779 24.3177 45.2778 24.2381L45.2678 18.4118ZM48.6029 18.4018C48.6029 18.2411 48.539 18.087 48.4254 17.9733C48.3117 17.8597 48.1576 17.7958 47.9969 17.7958H47.9635C47.8028 17.7958 47.6487 17.8597 47.535 17.9733C47.4214 18.087 47.3576 18.2411 47.3576 18.4018V24.2726C47.3576 24.4333 47.4214 24.5874 47.535 24.7011C47.6487 24.8147 47.8028 24.8786 47.9635 24.8786H47.9969C48.1576 24.8786 48.3117 24.8147 48.4254 24.7011C48.539 24.5874 48.6029 24.4333 48.6029 24.2726V18.4018ZM65.2045 26.4752C65.2046 26.5147 65.197 26.5537 65.182 26.5902C65.1671 26.6267 65.1451 26.6599 65.1173 26.6878C65.0896 26.7158 65.0565 26.7381 65.0202 26.7533C64.9838 26.7685 64.9448 26.7764 64.9054 26.7766L53.3528 26.8166C53.3134 26.8167 53.2744 26.8091 53.2379 26.7942C53.2014 26.7792 53.1682 26.7572 53.1402 26.7294C53.1123 26.7017 53.09 26.6686 53.0748 26.6323C53.0596 26.5959 53.0517 26.5569 53.0515 26.5175L53.0159 16.3103C53.0158 16.2709 53.0234 16.2319 53.0384 16.1954C53.0533 16.1589 53.0753 16.1257 53.1031 16.0977C53.1309 16.0698 53.1639 16.0475 53.2002 16.0323C53.2366 16.0171 53.2756 16.0092 53.3151 16.009L64.8676 15.969C64.907 15.9688 64.9461 15.9765 64.9825 15.9914C65.019 16.0064 65.0522 16.0284 65.0802 16.0561C65.1081 16.0839 65.1304 16.1169 65.1456 16.1533C65.1608 16.1897 65.1687 16.2287 65.1689 16.2681L65.2045 26.4752ZM56.3866 18.4063C56.3865 18.3267 56.3707 18.2479 56.3401 18.1744C56.3095 18.101 56.2647 18.0343 56.2084 17.9781C56.152 17.9219 56.0851 17.8774 56.0115 17.8471C55.938 17.8168 55.8591 17.8012 55.7795 17.8014H55.7462C55.6666 17.8015 55.5878 17.8174 55.5144 17.8479C55.4409 17.8785 55.3742 17.9233 55.318 17.9797C55.2619 18.036 55.2173 18.1029 55.187 18.1765C55.1567 18.2501 55.1412 18.3289 55.1413 18.4085L55.1513 24.1347C55.1515 24.2143 55.1673 24.2931 55.1979 24.3665C55.2285 24.44 55.2732 24.5067 55.3296 24.5629C55.386 24.619 55.4529 24.6636 55.5264 24.6939C55.6 24.7242 55.6788 24.7397 55.7584 24.7396H55.7918C55.8714 24.7394 55.9501 24.7236 56.0236 24.693C56.0971 24.6624 56.1638 24.6177 56.2199 24.5613C56.2761 24.5049 56.3206 24.438 56.3509 24.3645C56.3813 24.2909 56.3968 24.2121 56.3966 24.1325L56.3866 18.4063ZM59.6967 18.359C59.6976 18.2867 59.6842 18.215 59.6574 18.1479C59.6306 18.0807 59.5907 18.0196 59.5403 17.9679C59.4898 17.9161 59.4296 17.8748 59.3631 17.8464C59.2967 17.8179 59.2253 17.8028 59.153 17.8019L59.0863 17.8014C59.014 17.8005 58.9423 17.8139 58.8752 17.8407C58.8081 17.8676 58.7469 17.9074 58.6952 17.9579C58.6434 18.0084 58.6021 18.0685 58.5737 18.135C58.5452 18.2014 58.5301 18.2728 58.5292 18.3451L58.457 24.2487C58.4561 24.3209 58.4695 24.3927 58.4963 24.4598C58.5232 24.5269 58.563 24.5881 58.6134 24.6398C58.6639 24.6915 58.7241 24.7328 58.7906 24.7613C58.857 24.7898 58.9284 24.8049 59.0007 24.8057L59.0674 24.8063C59.1397 24.8072 59.2114 24.7938 59.2785 24.767C59.3456 24.7401 59.4068 24.7003 59.4585 24.6498C59.5103 24.5993 59.5515 24.5391 59.58 24.4727C59.6085 24.4063 59.6236 24.3348 59.6245 24.2626L59.6967 18.359ZM63.0674 18.3829C63.0679 18.3069 63.0533 18.2316 63.0246 18.1613C62.9959 18.0909 62.9537 18.0269 62.9002 17.9729C62.8468 17.9189 62.7832 17.8759 62.7132 17.8465C62.6432 17.8171 62.568 17.8018 62.492 17.8014H62.4587C62.3054 17.8006 62.1581 17.8608 62.0492 17.9686C61.9403 18.0764 61.8786 18.223 61.8777 18.3762L61.8466 24.2692C61.8461 24.3452 61.8607 24.4205 61.8894 24.4909C61.918 24.5612 61.9603 24.6252 62.0137 24.6793C62.0672 24.7333 62.1307 24.7762 62.2008 24.8056C62.2708 24.8351 62.346 24.8504 62.422 24.8508H62.4553C62.5312 24.8511 62.6065 24.8365 62.6768 24.8078C62.7471 24.7791 62.811 24.7368 62.865 24.6834C62.9189 24.63 62.9618 24.5664 62.9912 24.4964C63.0206 24.4264 63.0359 24.3513 63.0363 24.2754L63.0674 18.3823V18.3829Z" fill="#099CEC"/>
<path d="M26.8826 17.8458L26.8493 17.8458C26.5146 17.8452 26.2428 18.116 26.2422 18.4507L26.2322 24.2103C26.2316 24.5449 26.5024 24.8167 26.8371 24.8173L26.8705 24.8174C27.2051 24.818 27.4769 24.5471 27.4775 24.2124L27.4875 18.4529C27.4881 18.1182 27.2173 17.8464 26.8826 17.8458Z" fill="#066DA5"/>
<path d="M30.2189 17.8515L30.1855 17.8514C29.8508 17.8502 29.5786 18.1205 29.5774 18.4552L29.5572 24.2592C29.556 24.5939 29.8263 24.8662 30.161 24.8673L30.1944 24.8674C30.529 24.8686 30.8013 24.5983 30.8025 24.2636L30.8227 18.4596C30.8239 18.1249 30.5535 17.8526 30.2189 17.8515Z" fill="#066DA5"/>
<path d="M41.3317 17.8069L41.2983 17.8068C40.9636 17.8063 40.6918 18.0771 40.6913 18.4118L40.6811 24.2492C40.6805 24.5838 40.9513 24.8556 41.286 24.8562L41.3194 24.8563C41.654 24.8568 41.9258 24.586 41.9264 24.2513L41.9366 18.4139C41.9372 18.0793 41.6663 17.8075 41.3317 17.8069Z" fill="#066DA5"/>
<path d="M44.6606 17.8069L44.6273 17.8069C44.2926 17.8075 44.0218 18.0793 44.0224 18.414L44.0325 24.2402C44.0331 24.5749 44.3049 24.8458 44.6396 24.8452L44.6729 24.8451C45.0076 24.8445 45.2784 24.5727 45.2778 24.2381L45.2677 18.4118C45.2671 18.0771 44.9953 17.8063 44.6606 17.8069Z" fill="#066DA5"/>
<path d="M47.9969 17.7958H47.9635C47.6288 17.7958 47.3575 18.0671 47.3575 18.4018V24.2725C47.3575 24.6072 47.6288 24.8785 47.9635 24.8785H47.9969C48.3315 24.8785 48.6029 24.6072 48.6029 24.2725V18.4018C48.6029 18.0671 48.3315 17.7958 47.9969 17.7958Z" fill="#066DA5"/>
<path d="M55.7796 17.8013L55.7462 17.8013C55.4116 17.8019 55.1407 18.0737 55.1413 18.4083L55.1513 24.1346C55.1519 24.4692 55.4237 24.7401 55.7583 24.7395L55.7917 24.7394C56.1264 24.7388 56.3972 24.4671 56.3966 24.1324L56.3866 18.4062C56.386 18.0715 56.1143 17.8007 55.7796 17.8013Z" fill="#066DA5"/>
<path d="M59.1529 17.802L59.0862 17.8012C58.7823 17.7974 58.5329 18.0408 58.5292 18.3448L58.457 24.2485C58.4533 24.5524 58.6967 24.8018 59.0007 24.8055L59.0674 24.8063C59.3713 24.8101 59.6207 24.5667 59.6244 24.2627L59.6966 18.359C59.7003 18.0551 59.4569 17.8057 59.1529 17.802Z" fill="#066DA5"/>
<path d="M62.4921 17.8015L62.4587 17.8014C62.1394 17.7997 61.8792 18.0572 61.8775 18.3765L61.8467 24.2694C61.845 24.5888 62.1025 24.849 62.4218 24.8506L62.4552 24.8508C62.7745 24.8525 63.0347 24.595 63.0364 24.2757L63.0672 18.3827C63.0689 18.0634 62.8114 17.8032 62.4921 17.8015Z" fill="#066DA5"/>
<path d="M33.6206 17.9237L33.4538 17.9234C33.156 17.9229 32.9141 18.1639 32.9136 18.4618L32.9034 24.3103C32.9029 24.6081 33.1439 24.85 33.4417 24.8505L33.6085 24.8508C33.9063 24.8513 34.1482 24.6103 34.1487 24.3124L34.1589 18.4639C34.1594 18.1661 33.9184 17.9242 33.6206 17.9237Z" fill="#066DA5"/>
<path d="M47.8801 79.9003C40.79 77.1465 35.3639 72.749 31.6021 66.7077L30.657 64.8342C30.5569 64.6377 30.4086 64.5933 30.2122 64.7007C24.3785 67.877 18.1908 69.0612 11.6492 68.2532C10.5763 68.1198 9.69786 67.8029 9.05853 66.83C4.29223 59.5805 2.17223 51.5823 2.69853 42.8355C2.70965 42.6427 2.81157 42.5464 3.0043 42.5464C29.3412 42.5353 55.6578 42.5037 81.9539 42.4519C86.0716 42.4445 89.8075 41.3326 93.1617 39.1162C93.2179 39.0795 93.2655 39.0312 93.3013 38.9745C93.3371 38.9178 93.3603 38.854 93.3693 38.7876C93.3783 38.7211 93.3728 38.6535 93.3533 38.5893C93.3338 38.5252 93.3007 38.4659 93.2562 38.4157C88.7642 33.251 89.4592 25.301 93.0061 19.8416C93.1173 19.6711 93.2581 19.6433 93.4286 19.7582C97.9614 22.7714 100.365 27.0226 100.639 32.5116C100.65 32.6969 100.745 32.7636 100.923 32.7117C104.842 31.6276 112.247 30.9994 115.488 33.8458C115.622 33.9607 115.653 34.0997 115.583 34.2628C112.598 41.0064 106.004 42.9411 99.0825 42.3129C98.9955 42.3046 98.9085 42.324 98.8344 42.3681C98.7602 42.4122 98.703 42.4786 98.6712 42.5575C92.6558 56.8286 83.5495 67.7306 69.6397 74.2685C62.8535 77.456 55.6003 79.3332 47.8801 79.9003ZM42.8433 59.3581C42.8433 58.3127 42.428 57.3102 41.6888 56.571C40.9496 55.8318 39.947 55.4165 38.9016 55.4165C37.8562 55.4165 36.8536 55.8318 36.1144 56.571C35.3752 57.3102 34.96 58.3127 34.96 59.3581C34.96 60.4035 35.3752 61.4061 36.1144 62.1453C36.8536 62.8845 37.8562 63.2998 38.9016 63.2998C39.947 63.2998 40.9496 62.8845 41.6888 62.1453C42.428 61.4061 42.8433 60.4035 42.8433 59.3581Z" fill="#099CEC"/>
<path d="M36.2387 39.7944C36.2387 39.8258 36.2325 39.8569 36.2205 39.8859C36.2085 39.9149 36.1908 39.9412 36.1686 39.9634C36.1464 39.9856 36.1201 40.0032 36.0911 40.0153C36.0621 40.0273 36.031 40.0335 35.9996 40.0335H24.3915C24.3601 40.0335 24.329 40.0273 24.3 40.0153C24.271 40.0032 24.2446 39.9856 24.2225 39.9634C24.2003 39.9412 24.1826 39.9149 24.1706 39.8859C24.1586 39.8569 24.1524 39.8258 24.1524 39.7944V29.5539C24.1524 29.4905 24.1776 29.4297 24.2225 29.3849C24.2673 29.34 24.3281 29.3148 24.3915 29.3148H35.9996C36.063 29.3148 36.1238 29.34 36.1686 29.3849C36.2135 29.4297 36.2387 29.4905 36.2387 29.5539V39.7944ZM27.477 31.7332C27.477 31.5769 27.4149 31.427 27.3044 31.3165C27.1939 31.206 27.044 31.1439 26.8877 31.1439H26.821C26.6647 31.1439 26.5148 31.206 26.4043 31.3165C26.2938 31.427 26.2317 31.5769 26.2317 31.7332V37.6151C26.2317 37.7714 26.2938 37.9213 26.4043 38.0318C26.5148 38.1423 26.6647 38.2044 26.821 38.2044H26.8877C27.044 38.2044 27.1939 38.1423 27.3044 38.0318C27.4149 37.9213 27.477 37.7714 27.477 37.6151V31.7332ZM30.8293 31.6787C30.8295 31.6115 30.8163 31.5448 30.7907 31.4827C30.7651 31.4205 30.7274 31.364 30.6799 31.3163C30.6324 31.2687 30.576 31.231 30.5138 31.2052C30.4517 31.1794 30.3851 31.1661 30.3179 31.1661H30.0844C29.9489 31.1661 29.819 31.2199 29.7231 31.3156C29.6272 31.4112 29.5732 31.541 29.5729 31.6765L29.5618 37.5917C29.5616 37.659 29.5747 37.7256 29.6004 37.7878C29.626 37.85 29.6637 37.9065 29.7112 37.9541C29.7587 38.0017 29.8151 38.0395 29.8772 38.0653C29.9394 38.0911 30.006 38.1043 30.0732 38.1043H30.3067C30.4422 38.1043 30.5721 38.0506 30.668 37.9549C30.7639 37.8592 30.8179 37.7294 30.8182 37.594L30.8293 31.6787ZM34.1483 31.6998C34.1483 31.5819 34.1015 31.4688 34.018 31.3854C33.9346 31.302 33.8215 31.2551 33.7036 31.2551H33.3478C33.2298 31.2551 33.1167 31.302 33.0333 31.3854C32.9499 31.4688 32.903 31.5819 32.903 31.6998V37.7374C32.903 37.8554 32.9499 37.9685 33.0333 38.0519C33.1167 38.1353 33.2298 38.1822 33.3478 38.1822H33.7036C33.8215 38.1822 33.9346 38.1353 34.018 38.0519C34.1015 37.9685 34.1483 37.8554 34.1483 37.7374V31.6998ZM65.135 39.8822C65.1348 39.9352 65.1137 39.986 65.0761 40.0234C65.0386 40.0608 64.9878 40.0818 64.9348 40.0818L53.2378 40.0407C53.2114 40.0407 53.1854 40.0355 53.161 40.0254C53.1367 40.0153 53.1146 40.0005 53.096 39.9819C53.0774 39.9632 53.0627 39.9411 53.0527 39.9167C53.0427 39.8924 53.0375 39.8663 53.0376 39.84L53.0743 29.4661C53.0745 29.4131 53.0956 29.3623 53.1331 29.3249C53.1706 29.2875 53.2215 29.2665 53.2745 29.2665L64.9715 29.3076C64.9978 29.3076 65.0239 29.3128 65.0482 29.3229C65.0726 29.333 65.0946 29.3478 65.1132 29.3664C65.1318 29.3851 65.1466 29.4072 65.1566 29.4316C65.1666 29.4559 65.1717 29.482 65.1717 29.5083L65.135 39.8822ZM56.3972 31.7121C56.3973 31.6361 56.3825 31.5608 56.3536 31.4906C56.3246 31.4204 56.2821 31.3565 56.2284 31.3027C56.1748 31.2489 56.1111 31.2062 56.0409 31.1771C55.9708 31.1479 55.8955 31.1329 55.8196 31.1328H55.7306C55.6547 31.1326 55.5795 31.1474 55.5093 31.1764C55.4391 31.2053 55.3752 31.2478 55.3215 31.3013C55.2677 31.3549 55.2249 31.4186 55.1958 31.4887C55.1666 31.5588 55.1515 31.6339 55.1513 31.7099L55.1413 37.6251C55.1412 37.701 55.156 37.7762 55.1849 37.8464C55.2138 37.9166 55.2563 37.9805 55.3099 38.0343C55.3635 38.0881 55.4271 38.1308 55.4972 38.16C55.5673 38.1891 55.6425 38.2042 55.7184 38.2044H55.8073C55.8833 38.2045 55.9585 38.1897 56.0287 38.1608C56.0989 38.1319 56.1627 38.0894 56.2165 38.0358C56.2703 37.9823 56.313 37.9186 56.3422 37.8485C56.3714 37.7784 56.3865 37.7033 56.3866 37.6273L56.3972 31.7121ZM59.7234 31.6348C59.7259 31.5125 59.6798 31.3942 59.5952 31.3059C59.5105 31.2176 59.3943 31.1665 59.272 31.1639L59.0274 31.1584C58.9668 31.1571 58.9065 31.1678 58.85 31.1898C58.7936 31.2119 58.742 31.2448 58.6983 31.2868C58.6546 31.3288 58.6195 31.3789 58.5952 31.4345C58.5709 31.49 58.5577 31.5497 58.5565 31.6103L58.4314 37.5912C58.4289 37.7135 58.475 37.8318 58.5596 37.9201C58.6443 38.0084 58.7605 38.0594 58.8828 38.0621L59.1274 38.0676C59.188 38.0689 59.2483 38.0582 59.3047 38.0362C59.3612 38.0141 59.4128 37.9812 59.4565 37.9392C59.5002 37.8972 59.5353 37.847 59.5596 37.7915C59.5839 37.736 59.5971 37.6763 59.5983 37.6157L59.7234 31.6348ZM63.0624 31.7349C63.0628 31.5831 63.003 31.4374 62.8961 31.3297C62.7891 31.222 62.6438 31.1612 62.492 31.1606H62.4586C62.3834 31.1603 62.3089 31.1748 62.2393 31.2033C62.1698 31.2318 62.1065 31.2738 62.0531 31.3267C61.9997 31.3797 61.9573 31.4427 61.9282 31.512C61.8992 31.5814 61.8841 31.6558 61.8838 31.731L61.8638 37.6018C61.8635 37.6769 61.878 37.7515 61.9065 37.8211C61.935 37.8906 61.977 37.9539 62.0299 38.0073C62.0829 38.0607 62.1459 38.1031 62.2152 38.1322C62.2846 38.1612 62.359 38.1763 62.4342 38.1766H62.4675C62.5427 38.1769 62.6173 38.1624 62.6868 38.1339C62.7564 38.1054 62.8197 38.0634 62.8731 38.0105C62.9265 37.9575 62.9689 37.8945 62.998 37.8252C63.027 37.7558 63.0421 37.6814 63.0424 37.6062L63.0624 31.7349ZM21.7752 39.7994C21.7752 39.8322 21.7687 39.8648 21.7562 39.8951C21.7436 39.9255 21.7252 39.9531 21.7019 39.9763C21.6787 39.9995 21.6511 40.018 21.6208 40.0305C21.5904 40.0431 21.5579 40.0496 21.525 40.0496L9.93917 40.029C9.90627 40.029 9.87369 40.0225 9.8433 40.0099C9.81291 39.9973 9.78531 39.9788 9.76207 39.9555C9.73883 39.9322 9.72042 39.9046 9.70788 39.8742C9.69534 39.8438 9.68892 39.8112 9.689 39.7783L9.70678 29.5711C9.70678 29.5048 9.73314 29.4412 9.78006 29.3942C9.82697 29.3473 9.89061 29.321 9.95696 29.321L21.5428 29.3415C21.5757 29.3415 21.6083 29.348 21.6387 29.3606C21.6691 29.3732 21.6967 29.3917 21.7199 29.415C21.7432 29.4383 21.7616 29.4659 21.7741 29.4964C21.7867 29.5268 21.7931 29.5594 21.793 29.5923L21.7752 39.7994ZM13.033 31.7732C13.0331 31.6937 13.0176 31.6148 12.9873 31.5413C12.957 31.4677 12.9125 31.4008 12.8563 31.3444C12.8001 31.288 12.7334 31.2433 12.6599 31.2127C12.5865 31.1821 12.5077 31.1663 12.4281 31.1661H12.3948C12.3152 31.166 12.2364 31.1815 12.1628 31.2118C12.0892 31.2422 12.0223 31.2867 11.966 31.3428C11.9096 31.399 11.8648 31.4657 11.8342 31.5392C11.8036 31.6127 11.7878 31.6914 11.7877 31.771L11.7777 37.5973C11.7775 37.6769 11.7931 37.7557 11.8234 37.8293C11.8537 37.9029 11.8982 37.9697 11.9544 38.0261C12.0105 38.0825 12.0773 38.1273 12.1507 38.1578C12.2242 38.1884 12.303 38.2042 12.3825 38.2044H12.4159C12.4955 38.2045 12.5743 38.189 12.6479 38.1587C12.7215 38.1284 12.7883 38.0839 12.8447 38.0277C12.9011 37.9715 12.9459 37.9048 12.9764 37.8313C13.007 37.7579 13.0228 37.6791 13.023 37.5995L13.033 31.7732ZM16.3531 31.7488C16.353 31.6692 16.3371 31.5904 16.3065 31.517C16.276 31.4435 16.2312 31.3768 16.1748 31.3206C16.1184 31.2644 16.0516 31.2199 15.978 31.1896C15.9044 31.1593 15.8256 31.1438 15.746 31.1439H15.7126C15.6331 31.144 15.5543 31.1599 15.4808 31.1905C15.4074 31.221 15.3406 31.2658 15.2845 31.3222C15.2283 31.3786 15.1838 31.4454 15.1535 31.519C15.1232 31.5926 15.1076 31.6714 15.1078 31.751L15.1178 37.5995C15.1179 37.6791 15.1338 37.7579 15.1643 37.8313C15.1949 37.9048 15.2397 37.9715 15.2961 38.0277C15.3524 38.0839 15.4193 38.1284 15.4929 38.1587C15.5665 38.189 15.6453 38.2045 15.7249 38.2044H15.7582C15.8379 38.2043 15.9167 38.1886 15.9902 38.158C16.0637 38.1274 16.1305 38.0827 16.1868 38.0263C16.243 37.9699 16.2876 37.903 16.3179 37.8294C16.3483 37.7558 16.3638 37.6769 16.3637 37.5973L16.3531 31.7488ZM19.6988 31.7065C19.6989 31.6386 19.6857 31.5714 19.6598 31.5086C19.634 31.4458 19.596 31.3887 19.5481 31.3406C19.5002 31.2925 19.4433 31.2543 19.3806 31.2282C19.318 31.202 19.2507 31.1885 19.1829 31.1884H18.9716C18.9037 31.1882 18.8364 31.2015 18.7737 31.2273C18.7109 31.2532 18.6538 31.2911 18.6057 31.339C18.5576 31.3869 18.5194 31.4438 18.4932 31.5065C18.4671 31.5692 18.4536 31.6364 18.4535 31.7043L18.4434 37.6751C18.4433 37.743 18.4565 37.8103 18.4824 37.8731C18.5082 37.9359 18.5462 37.9929 18.5941 38.0411C18.642 38.0892 18.6989 38.1274 18.7616 38.1535C18.8243 38.1796 18.8915 38.1931 18.9594 38.1933H19.1706C19.2385 38.1934 19.3058 38.1802 19.3686 38.1543C19.4313 38.1285 19.4884 38.0905 19.5365 38.0426C19.5847 37.9947 19.6229 37.9378 19.649 37.8751C19.6751 37.8125 19.6886 37.7453 19.6888 37.6774L19.6988 31.7065ZM50.6787 39.7271C50.6786 39.8125 50.6446 39.8944 50.5841 39.9548C50.5237 40.0151 50.4417 40.049 50.3563 40.049L38.915 40.029C38.8726 40.029 38.8306 40.0206 38.7915 40.0044C38.7523 39.9882 38.7167 39.9644 38.6868 39.9344C38.6568 39.9044 38.6331 39.8688 38.6169 39.8296C38.6007 39.7904 38.5924 39.7484 38.5925 39.706L38.6103 29.6434C38.6105 29.558 38.6445 29.4761 38.705 29.4158C38.7654 29.3554 38.8473 29.3215 38.9328 29.3215L50.3741 29.3415C50.4165 29.3415 50.4585 29.3499 50.4976 29.3661C50.5368 29.3824 50.5723 29.4062 50.6023 29.4362C50.6322 29.4662 50.656 29.5018 50.6722 29.541C50.6883 29.5802 50.6966 29.6221 50.6965 29.6645L50.6787 39.7271ZM41.9371 31.7443C41.9371 31.5836 41.8732 31.4295 41.7596 31.3158C41.646 31.2022 41.4918 31.1383 41.3311 31.1383H41.2978C41.137 31.1383 40.9829 31.2022 40.8693 31.3158C40.7556 31.4295 40.6918 31.5836 40.6918 31.7443V37.5929C40.6918 37.7536 40.7556 37.9077 40.8693 38.0213C40.9829 38.135 41.137 38.1988 41.2978 38.1988H41.3311C41.4918 38.1988 41.646 38.135 41.7596 38.0213C41.8732 37.9077 41.9371 37.7536 41.9371 37.5929V31.7443ZM45.2616 31.7043C45.2613 31.56 45.2038 31.4217 45.1017 31.3198C44.9995 31.2178 44.8611 31.1606 44.7168 31.1606H44.5611C44.4895 31.1606 44.4186 31.1747 44.3524 31.2022C44.2862 31.2296 44.2261 31.2698 44.1755 31.3206C44.1249 31.3713 44.0848 31.4315 44.0575 31.4977C44.0302 31.5639 44.0162 31.6349 44.0163 31.7065L44.0274 37.5662C44.0277 37.7105 44.0853 37.8488 44.1874 37.9507C44.2895 38.0526 44.428 38.1099 44.5723 38.1099H44.7279C44.7996 38.1099 44.8705 38.0958 44.9367 38.0683C45.0029 38.0409 45.063 38.0006 45.1136 37.9499C45.1642 37.8992 45.2043 37.839 45.2316 37.7728C45.2589 37.7066 45.2729 37.6356 45.2728 37.5639L45.2616 31.7043ZM48.6029 31.7499C48.6029 31.5892 48.539 31.435 48.4254 31.3214C48.3117 31.2077 48.1576 31.1439 47.9969 31.1439H47.9635C47.8028 31.1439 47.6487 31.2077 47.535 31.3214C47.4214 31.435 47.3575 31.5892 47.3575 31.7499V37.6095C47.3575 37.7703 47.4214 37.9244 47.535 38.038C47.6487 38.1517 47.8028 38.2155 47.9635 38.2155H47.9969C48.1576 38.2155 48.3117 38.1517 48.4254 38.038C48.539 37.9244 48.6029 37.7703 48.6029 37.6095V31.7499ZM79.5967 39.8555C79.5967 39.9042 79.5774 39.9509 79.543 39.9853C79.5086 40.0197 79.4619 40.039 79.4133 40.039H67.6829C67.6342 40.039 67.5875 40.0197 67.5531 39.9853C67.5187 39.9509 67.4994 39.9042 67.4994 39.8555V29.515C67.4994 29.4663 67.5187 29.4197 67.5531 29.3853C67.5875 29.3509 67.6342 29.3315 67.6829 29.3315H79.4133C79.4619 29.3315 79.5086 29.3509 79.543 29.3853C79.5774 29.4197 79.5967 29.4663 79.5967 29.515V39.8555ZM70.8351 31.7654C70.8348 31.6063 70.7713 31.4538 70.6586 31.3414C70.5459 31.229 70.3932 31.166 70.2341 31.1661H70.2007C70.1219 31.1663 70.0438 31.182 69.971 31.2123C69.8983 31.2426 69.8321 31.2869 69.7765 31.3428C69.7208 31.3986 69.6767 31.4649 69.6467 31.5378C69.6167 31.6107 69.6013 31.6888 69.6014 31.7677L69.6114 37.594C69.6116 37.6728 69.6272 37.7509 69.6576 37.8237C69.6879 37.8964 69.7322 37.9626 69.7881 38.0182C69.8439 38.0739 69.9102 38.118 69.9831 38.148C70.056 38.178 70.1341 38.1934 70.213 38.1933H70.2463C70.3252 38.1931 70.4032 38.1775 70.476 38.1471C70.5488 38.1168 70.6149 38.0725 70.6706 38.0166C70.7262 37.9608 70.7703 37.8945 70.8003 37.8216C70.8304 37.7487 70.8458 37.6706 70.8456 37.5917L70.8356 31.7654H70.8351ZM74.1707 31.7821C74.1704 31.623 74.107 31.4705 73.9943 31.3581C73.8816 31.2457 73.7289 31.1827 73.5697 31.1828H73.5253C73.4464 31.183 73.3684 31.1986 73.2956 31.2289C73.2228 31.2593 73.1567 31.3036 73.101 31.3595C73.0454 31.4153 73.0013 31.4816 72.9712 31.5545C72.9412 31.6274 72.9258 31.7055 72.926 31.7843L72.936 37.5995C72.9361 37.6784 72.9518 37.7564 72.9821 37.8292C73.0124 37.902 73.0568 37.9681 73.1126 38.0238C73.1685 38.0794 73.2347 38.1235 73.3076 38.1536C73.3806 38.1836 73.4587 38.199 73.5375 38.1988H73.582C73.6608 38.1987 73.7389 38.183 73.8117 38.1527C73.8845 38.1224 73.9506 38.078 74.0062 38.0222C74.0619 37.9663 74.106 37.9001 74.136 37.8272C74.166 37.7543 74.1814 37.6762 74.1813 37.5973L74.1713 31.7821H74.1707ZM77.5119 31.6998C77.5119 31.5819 77.4651 31.4688 77.3817 31.3854C77.2983 31.302 77.1852 31.2551 77.0672 31.2551H76.7114C76.5934 31.2551 76.4803 31.302 76.3969 31.3854C76.3135 31.4688 76.2666 31.5819 76.2666 31.6998V37.7374C76.2666 37.8554 76.3135 37.9685 76.3969 38.0519C76.4803 38.1353 76.5934 38.1822 76.7114 38.1822H77.0672C77.1852 38.1822 77.2983 38.1353 77.3817 38.0519C77.4651 37.9685 77.5119 37.8554 77.5119 37.7374V31.6998Z" fill="#099CEC"/>
<path d="M12.4282 31.1663L12.3948 31.1662C12.0601 31.1656 11.7883 31.4365 11.7878 31.7711L11.7776 37.5974C11.777 37.9321 12.0478 38.2039 12.3825 38.2045L12.4159 38.2045C12.7505 38.2051 13.0223 37.9343 13.0229 37.5996L13.0331 31.7733C13.0337 31.4386 12.7628 31.1669 12.4282 31.1663Z" fill="#066DA5"/>
<path d="M15.746 31.144L15.7126 31.1441C15.3779 31.1447 15.1071 31.4164 15.1077 31.7511L15.1179 37.5996C15.1185 37.9343 15.3903 38.2051 15.7249 38.2046L15.7583 38.2045C16.093 38.2039 16.3638 37.9321 16.3632 37.5975L16.353 31.7489C16.3524 31.4143 16.0806 31.1434 15.746 31.144Z" fill="#066DA5"/>
<path d="M19.1828 31.1886L18.9716 31.1883C18.686 31.1878 18.4541 31.4189 18.4536 31.7044L18.4432 37.6752C18.4427 37.9608 18.6738 38.1927 18.9593 38.1932L19.1706 38.1935C19.4561 38.194 19.688 37.963 19.6885 37.6774L19.6989 31.7066C19.6994 31.421 19.4684 31.1891 19.1828 31.1886Z" fill="#066DA5"/>
<path d="M26.8876 31.144H26.8209C26.4955 31.144 26.2316 31.4079 26.2316 31.7333V37.6152C26.2316 37.9407 26.4955 38.2045 26.8209 38.2045H26.8876C27.2131 38.2045 27.4769 37.9407 27.4769 37.6152V31.7333C27.4769 31.4079 27.2131 31.144 26.8876 31.144Z" fill="#066DA5"/>
<path d="M30.3183 31.1665L30.0848 31.1661C29.8024 31.1656 29.573 31.3942 29.5725 31.6766L29.5621 37.5919C29.5617 37.8743 29.7902 38.1037 30.0727 38.1042L30.3062 38.1046C30.5887 38.1051 30.8181 37.8765 30.8186 37.5941L30.8289 31.6788C30.8294 31.3963 30.6008 31.167 30.3183 31.1665Z" fill="#066DA5"/>
<path d="M41.3311 31.1384H41.2978C40.9631 31.1384 40.6918 31.4097 40.6918 31.7444V37.5929C40.6918 37.9276 40.9631 38.1989 41.2978 38.1989H41.3311C41.6658 38.1989 41.9371 37.9276 41.9371 37.5929V31.7444C41.9371 31.4097 41.6658 31.1384 41.3311 31.1384Z" fill="#066DA5"/>
<path d="M44.7162 31.1605L44.5606 31.1608C44.2597 31.1613 44.0162 31.4057 44.0167 31.7066L44.0269 37.5662C44.0275 37.8671 44.2718 38.1106 44.5727 38.1101L44.7284 38.1098C45.0293 38.1093 45.2728 37.8649 45.2722 37.564L45.262 31.7044C45.2615 31.4035 45.0171 31.16 44.7162 31.1605Z" fill="#066DA5"/>
<path d="M47.9969 31.144H47.9635C47.6288 31.144 47.3575 31.4154 47.3575 31.75V37.6097C47.3575 37.9443 47.6288 38.2157 47.9635 38.2157H47.9969C48.3315 38.2157 48.6029 37.9443 48.6029 37.6097V31.75C48.6029 31.4154 48.3315 31.144 47.9969 31.144Z" fill="#066DA5"/>
<path d="M55.8196 31.133L55.7306 31.1328C55.4113 31.1323 55.152 31.3907 55.1515 31.71L55.1411 37.6253C55.1406 37.9446 55.399 38.2039 55.7183 38.2044L55.8073 38.2046C56.1266 38.2052 56.3859 37.9467 56.3864 37.6274L56.3968 31.7122C56.3973 31.3929 56.1389 31.1336 55.8196 31.133Z" fill="#066DA5"/>
<path d="M59.2714 31.164L59.0268 31.1588C58.772 31.1535 58.5612 31.3557 58.5558 31.6105L58.4306 37.5911C58.4252 37.8459 58.6274 38.0568 58.8822 38.0621L59.1268 38.0673C59.3816 38.0726 59.5924 37.8704 59.5978 37.6156L59.7231 31.635C59.7284 31.3802 59.5262 31.1693 59.2714 31.164Z" fill="#066DA5"/>
<path d="M62.4914 31.1608L62.4581 31.1607C62.1418 31.1596 61.8845 31.4151 61.8834 31.7313L61.8629 37.602C61.8618 37.9183 62.1173 38.1756 62.4336 38.1767L62.4669 38.1768C62.7832 38.1779 63.0404 37.9224 63.0415 37.6062L63.062 31.7354C63.0631 31.4192 62.8077 31.1619 62.4914 31.1608Z" fill="#066DA5"/>
<path d="M70.2341 31.1663L70.2007 31.1663C69.8691 31.1669 69.6007 31.4362 69.6013 31.7678L69.6115 37.5941C69.6121 37.9257 69.8814 38.194 70.213 38.1934L70.2463 38.1934C70.5779 38.1928 70.8463 37.9235 70.8457 37.5919L70.8355 31.7656C70.8349 31.434 70.5657 31.1657 70.2341 31.1663Z" fill="#066DA5"/>
<path d="M73.5697 31.1828L73.5252 31.1829C73.1936 31.1835 72.9253 31.4528 72.9259 31.7844L72.936 37.5995C72.9366 37.9311 73.2059 38.1995 73.5375 38.1989L73.5819 38.1988C73.9135 38.1983 74.1819 37.929 74.1813 37.5974L74.1712 31.7822C74.1706 31.4506 73.9013 31.1823 73.5697 31.1828Z" fill="#066DA5"/>
<path d="M33.7035 31.2551H33.3477C33.1021 31.2551 32.903 31.4542 32.903 31.6999V37.7374C32.903 37.9831 33.1021 38.1822 33.3477 38.1822H33.7035C33.9491 38.1822 34.1483 37.9831 34.1483 37.7374V31.6999C34.1483 31.4542 33.9491 31.2551 33.7035 31.2551Z" fill="#066DA5"/>
<path d="M77.0672 31.2551H76.7114C76.4657 31.2551 76.2666 31.4542 76.2666 31.6999V37.7374C76.2666 37.9831 76.4657 38.1822 76.7114 38.1822H77.0672C77.3128 38.1822 77.5119 37.9831 77.5119 37.7374V31.6999C77.5119 31.4542 77.3128 31.2551 77.0672 31.2551Z" fill="#066DA5"/>
<path d="M42.8433 59.3581C42.8433 60.4035 42.428 61.4061 41.6888 62.1453C40.9496 62.8845 39.947 63.2998 38.9016 63.2998C37.8562 63.2998 36.8536 62.8845 36.1144 62.1453C35.3752 61.4061 34.96 60.4035 34.96 59.3581C34.96 58.3128 35.3752 57.3102 36.1144 56.571C36.8536 55.8318 37.8562 55.4165 38.9016 55.4165C39.947 55.4165 40.9496 55.8318 41.6888 56.571C42.428 57.3102 42.8433 58.3128 42.8433 59.3581ZM39.5576 58.6577L39.8467 57.5958C39.8638 57.5295 39.8541 57.4591 39.8198 57.3998C39.7855 57.3406 39.7293 57.2972 39.6633 57.2789C37.9009 56.8286 36.5889 57.6458 36.7112 59.5416C36.9113 62.5215 41.1309 62.0211 41.181 59.5472C41.1884 59.3322 41.0828 59.221 40.8641 59.2136L39.9523 59.1914C39.8885 59.1894 39.8259 59.173 39.7693 59.1434C39.7126 59.1138 39.6635 59.0717 39.6255 59.0203C39.5875 58.9689 39.5616 58.9096 39.5499 58.8468C39.5381 58.784 39.5408 58.7193 39.5576 58.6577Z" fill="white"/>
<path d="M39.9524 59.1914L40.8641 59.2136C41.0828 59.221 41.1884 59.3322 41.181 59.5472C41.131 62.0211 36.9113 62.5215 36.7112 59.5416C36.5889 57.6458 37.9009 56.8286 39.6633 57.2789C39.7293 57.2971 39.7855 57.3406 39.8198 57.3998C39.8541 57.4591 39.8638 57.5295 39.8467 57.5958L39.5576 58.6576C39.5408 58.7193 39.5381 58.7839 39.5499 58.8468C39.5617 58.9096 39.5875 58.9689 39.6255 59.0203C39.6635 59.0716 39.7127 59.1137 39.7693 59.1434C39.8259 59.173 39.8885 59.1894 39.9524 59.1914Z" fill="#066DA5"/>
<path d="M31.6021 66.7078C35.3639 72.749 40.79 77.1465 47.8801 79.9003C35.3046 81.6738 21.9453 79.7891 12.522 71.0052C12.4982 70.984 12.4818 70.9558 12.4751 70.9246C12.4684 70.8934 12.4718 70.8609 12.4848 70.8318C12.4978 70.8027 12.5197 70.7785 12.5474 70.7627C12.5751 70.7469 12.6071 70.7403 12.6388 70.7439C19.236 71.348 25.5571 70.0027 31.6021 66.7078Z" fill="white"/>
</g>
<defs>
<clipPath id="clip0_11_149">
<rect width="119" height="83" fill="white"/>
</clipPath>
</defs>
</svg>
