<svg xmlns="http://www.w3.org/2000/svg" viewBox="0 0 1448 1448"><g fill="none" stroke-width="2"><path stroke="#e4b122" d="M629.25 470.49q-.37-.54-.22-1.09.12-.46-.08-.89c-43.22-97.08-110.3-179.57-194.38-244.27q-.43-.33-.32-.86l.24-1.05" vector-effect="non-scaling-stroke"/><path stroke="#15627f" d="M651.73 561.01Q678 667.66 669.31 778.33q-4.38 55.69-17.56 108.66" vector-effect="non-scaling-stroke"/><path stroke="#20ada0" d="M642.53 977.51q-63.7 152.68-191.94 257.06" vector-effect="non-scaling-stroke"/></g><path fill="#f0bf1a" d="M629.25 470.49q-.37-.54-.22-1.09.12-.46-.08-.89c-43.22-97.08-110.3-179.57-194.38-244.27q-.43-.33-.32-.86l.24-1.05c252.61-143.99 569.13-82.25 748.13 147.93a1.24 1.23-44 0 1-.03 1.54c-52.8 62.77-129.1 98.64-211.66 98.67q-170.83.06-341.68.02Z"/><path fill="#d7a229" d="m434.49 222.33-.24 1.05q-.11.53.32.86c84.08 64.7 151.16 147.19 194.38 244.27q.2.43.08.89-.15.55.22 1.09H203.47q-.75 0-.41-.67 77.15-153.7 223.8-243.76 3.72-2.28 7.63-3.73Z"/><path fill="#231f20" d="M651.73 561.01Q678 667.66 669.31 778.33q-4.38 55.69-17.56 108.66H169.09a1.4 1.39 82 0 1-1.34-1.01q-46.14-162.23.13-324.4a.79.78 7.7 0 1 .76-.57h483.09Z"/><path fill="#07a5de" d="M651.73 561.01q124.23-.03 248.42 0c45.52.01 84.62 12.94 117.68 43.4 56.48 52.03 67.65 137.28 28.91 202.81-30.07 50.88-86.7 81.53-146.24 79.51q-.37-.01-.72.09a.95.05-15.6 0 1-.75.17H651.75q13.18-52.97 17.56-108.66 8.69-110.67-17.58-217.32Z"/><path fill="#019b8f" d="M642.53 977.51q-63.7 152.68-191.94 257.06c-108.49-58.66-191.94-146.45-247.62-256.66a.28.27-13.6 0 1 .25-.4h439.31Z"/><path fill="#3ebeb0" d="M642.53 977.51q163.53-.02 327.72 0 13.35 0 19.99.34c75.62 3.87 145.6 38.87 194.62 96.07a.64.64 0 0 1 .02.81C1083.13 1207.8 930.8 1289.8 763.67 1301.8c-108.77 7.82-217-16.35-313.08-67.23q128.24-104.38 191.94-257.06Z"/></svg>