<svg width="216" height="54" viewBox="0 0 216 54" fill="none" xmlns="http://www.w3.org/2000/svg">
<g clip-path="url(#clip0_8_27)">
<path fill-rule="evenodd" clip-rule="evenodd" d="M95.6531 24.1191V43.5251C95.6531 43.663 95.6166 43.8928 95.4522 43.9664C95.4522 43.9664 91.2617 46.9724 84.3506 46.9724C75.9878 46.9724 66.0913 44.3341 66.0913 26.9596C66.0913 9.5852 74.7462 6 83.2094 6.02758C90.5222 6.02758 93.4711 7.69148 93.9458 7.99484C94.0736 8.16031 94.1467 8.29821 94.1467 8.46368L92.7316 14.485C92.7316 14.7883 92.4303 15.1561 92.0651 15.0549C90.86 14.6872 89.0432 13.9426 84.7797 13.9426C79.8497 13.9426 74.5453 15.3583 74.5453 26.5552C74.5453 37.7428 79.5849 39.0666 83.2094 39.0666C86.2952 39.0666 87.3999 38.6897 87.3999 38.6897V30.9126H82.4699C82.0956 30.9126 81.8308 30.646 81.8308 30.3426V24.1191C81.8308 23.8157 82.0956 23.5399 82.4699 23.5399H95.014C95.3883 23.5399 95.6531 23.8157 95.6531 24.1191ZM215.954 31.9973C215.954 43.5895 212.229 46.9081 205.72 46.9081C200.215 46.9081 197.266 44.1043 197.266 44.1043C197.266 44.1043 197.129 45.6578 196.965 45.8601C196.864 46.0623 196.691 46.1267 196.49 46.1267H191.523C191.186 46.1267 190.884 45.8601 190.884 45.5567L190.957 7.99484C190.957 7.69148 191.222 7.41569 191.523 7.41569H198.672C198.973 7.41569 199.247 7.69148 199.247 7.99484V20.7361C199.247 20.7361 201.995 18.9435 206.021 18.9435L205.985 18.8791C210.011 18.8791 215.954 20.396 215.954 31.9973ZM158.976 7.48004C159.278 7.48004 159.542 7.75583 159.542 8.05919V45.6211C159.542 45.9244 159.278 46.2002 158.976 46.2002H151.828C151.526 46.2002 151.262 45.9244 151.262 45.6211L151.326 29.5612H140.215V45.6211C140.215 45.9244 139.95 46.2002 139.649 46.2002H132.5C132.236 46.2002 131.925 45.9244 131.925 45.6211V8.05919C131.925 7.75583 132.199 7.48004 132.5 7.48004H139.649C139.95 7.48004 140.215 7.75583 140.215 8.05919V21.8852H151.326V8.05919C151.326 7.75583 151.59 7.48004 151.892 7.48004H158.976ZM186.694 19.7892C187.068 19.7892 187.333 20.065 187.333 20.3684L187.269 45.6211C187.269 45.9244 187.068 46.2002 186.694 46.2002H182.202C181.965 46.2002 181.727 46.0623 181.663 45.8877C181.563 45.6854 181.399 44.3708 181.399 44.3708C181.399 44.3708 177.601 46.9724 172.935 46.9724C167.266 46.9724 163.139 45.1155 163.139 37.6785V20.396C163.139 20.0926 163.413 19.826 163.715 19.826H170.89C171.192 19.826 171.466 20.0926 171.466 20.396V36.4558C171.466 38.993 172.205 40.1422 174.716 40.1422C177.236 40.1422 179.08 38.8276 179.08 38.8276V20.4327C179.08 20.065 179.281 19.7892 179.655 19.7892H186.694ZM128.282 39.9767H128.301C128.368 39.9951 128.432 40.0226 128.492 40.0594C128.547 40.0962 128.599 40.1422 128.648 40.1973C128.69 40.2525 128.721 40.3138 128.739 40.3812C128.763 40.4486 128.775 40.516 128.775 40.5834V45.6578C128.775 45.8877 128.675 46.1267 128.465 46.2002C128.136 46.3657 125.982 46.9356 124.211 46.9356C120.312 46.9356 114.606 46.0991 114.606 37.8439V26.7574H110.881C110.58 26.7574 110.315 26.4816 110.315 26.1139V21.5175C110.315 21.2417 110.48 21.0119 110.753 20.9383C110.982 20.9108 114.643 19.9915 114.643 19.9915V12.6556C114.643 12.389 114.807 12.2143 115.117 12.2143H122.357C122.668 12.2143 122.832 12.389 122.832 12.6556V19.7892H128.164C128.438 19.7892 128.702 20.065 128.702 20.3684V26.1139C128.702 26.4816 128.465 26.7574 128.164 26.7574H122.832V37.3383C122.832 38.9287 123.736 40.1513 126.356 40.1513C127.187 40.1513 127.972 39.9859 128.282 39.9767ZM107.156 19.7617C107.467 19.7617 107.732 20.0282 107.732 20.3316V45.2534C107.732 45.8601 107.567 46.1635 106.892 46.1635H100.446C99.8801 46.1635 99.4419 45.9244 99.4419 45.2534V20.4327C99.4419 20.065 99.7066 19.7617 100.017 19.7617H107.156ZM207.792 32.5397C207.792 26.4173 205.337 25.6083 202.753 25.8749C200.744 26.0128 199.128 27.024 199.128 27.024V38.9287C199.128 38.9287 200.772 40.0778 203.228 40.1422C206.679 40.2433 207.792 38.993 207.792 32.5397ZM103.596 17.6565C101.058 17.6565 98.9945 15.5789 98.9945 12.9957C98.9945 10.4126 101.058 8.32578 103.596 8.32578C106.134 8.32578 108.197 10.4126 108.197 12.9957C108.197 15.5789 106.134 17.6565 103.596 17.6565ZM128.264 39.9399V39.9491L128.292 39.9767H128.273C128.246 39.9767 128.219 39.9399 128.191 39.9399H128.264Z" fill="black"/>
</g>
<g clip-path="url(#clip1_8_27)">
<path d="M28.0181 0C43.4779 0 56 12.3874 56 27.6808C56 30.5618 55.5436 33.4284 54.6525 36.1696C53.7578 38.9144 52.4393 41.5051 50.7405 43.845C49.038 46.1849 46.9806 48.2524 44.6406 49.9652C42.297 51.678 39.6962 53.0218 36.9361 53.9427C35.5379 54.2186 35.0127 53.355 35.0127 52.6276C35.0127 51.6924 35.0489 48.7183 35.0489 45.0167C35.0489 42.4224 34.1723 40.7598 33.1581 39.8962C39.3847 39.2046 45.9265 36.8504 45.9265 26.226C45.9265 23.1838 44.8435 20.7257 43.0577 18.7871C43.3366 18.0956 44.3182 15.2576 42.7788 11.4522C42.7788 11.4522 40.4352 10.6925 35.0851 14.2901C32.8466 13.6666 30.4668 13.3549 28.0869 13.3549C25.7107 13.3549 23.3309 13.6666 21.0924 14.2901C15.7423 10.7248 13.3987 11.4522 13.3987 11.4522C11.8592 15.2576 12.8373 18.0956 13.1162 18.7871C11.334 20.7257 10.251 23.2161 10.251 26.226C10.251 36.8146 16.7565 39.2046 22.9796 39.8962C22.1754 40.5878 21.4437 41.7989 21.1974 43.5977C19.5891 44.3251 15.5648 45.5005 13.0473 41.3152C12.5221 40.4839 10.9501 38.4414 8.74411 38.4772C6.40052 38.5095 7.80233 39.7923 8.78034 40.3119C9.96843 40.9676 11.334 43.4257 11.6492 44.2212C12.207 45.7764 14.0254 48.7541 21.0561 47.4713C21.0561 49.7896 21.0924 51.9719 21.0924 52.6276C21.0924 53.355 20.5671 54.1863 19.169 53.9427C16.3979 53.0325 13.7899 51.696 11.4391 49.9867C9.08823 48.2739 7.01992 46.2135 5.31384 43.8701C3.60776 41.5266 2.28202 38.9359 1.38732 36.1875C0.489004 33.4392 0.0362225 30.5689 0.0362225 27.6808C0.0362225 12.3874 12.5583 0 28.0181 0Z" fill="black"/>
</g>
<defs>
<clipPath id="clip0_8_27">
<rect width="150" height="41" fill="white" transform="translate(66 6)"/>
</clipPath>
<clipPath id="clip1_8_27">
<rect width="56" height="54" fill="white"/>
</clipPath>
</defs>
</svg>
