<svg width="431" height="101" viewBox="0 0 431 101" fill="none" xmlns="http://www.w3.org/2000/svg">
<g clip-path="url(#clip0_3442_1316)">
<path d="M161.243 16.1258L150.191 36.6141C149.293 38.3926 147.974 39.927 146.348 41.0851C144.907 42.0815 143.193 42.6109 141.438 42.6012C139.983 42.5828 138.545 42.2797 137.207 41.7091L138.652 37.1659C139.487 37.4502 140.36 37.6117 141.242 37.6455C141.944 37.6667 142.637 37.4878 143.241 37.1298C143.908 36.7018 144.468 36.1266 144.877 35.4486L145.1 35.1547L134.851 16.1567L141.278 16.1567L148.192 30.0391L155.318 16.1155L161.243 16.1258Z" fill="black"/>
<path d="M187.936 16.1257L187.936 41.9978L181.923 41.9978L181.923 31.3953L170.12 31.3953L170.12 41.9978L164.102 41.9978L164.102 16.1257L170.12 16.1257L170.12 26.3415L181.923 26.3415L181.923 16.136L187.936 16.1257Z" fill="black"/>
<path d="M194.43 16.1257L200.407 16.1257L200.407 32.9836L212.8 16.1257L218.445 16.1257L218.445 41.9978L212.505 41.9978L212.505 25.1812L200.111 41.9978L194.43 41.9978L194.43 16.1257Z" fill="black"/>
<path d="M241.719 34.2316C241.719 32.0966 240.309 31.0257 237.488 31.0188L230.885 31.0188L230.885 37.5629L237.488 37.5629C240.312 37.5629 241.723 36.4525 241.719 34.2316ZM230.885 26.8469L236.483 26.8469C237.536 26.9193 238.582 26.6398 239.456 26.0527C239.936 25.5991 240.265 25.0099 240.398 24.3644C240.532 23.719 240.463 23.0484 240.202 22.4429C240.028 22.0409 239.774 21.6779 239.456 21.3755C238.592 20.7823 237.552 20.497 236.504 20.5658L230.901 20.5658L230.885 26.8469ZM246.52 30.8022C247.385 31.9214 247.832 33.3052 247.784 34.7163C247.83 35.7529 247.618 36.7848 247.166 37.7198C246.715 38.6548 246.037 39.4637 245.195 40.0743C243.444 41.3601 240.949 42.0013 237.711 41.9978L224.908 41.9978L224.908 16.1257L237.007 16.1257C240.028 16.1257 242.377 16.705 244.055 17.8636C244.869 18.4019 245.529 19.1408 245.971 20.0083C246.413 20.8758 246.622 21.8425 246.577 22.8142C246.603 24.0124 246.268 25.1908 245.614 26.1971C244.939 27.1986 244.003 27.9975 242.905 28.5074C244.32 28.882 245.583 29.6837 246.52 30.8022Z" fill="black"/>
<path d="M272.674 37.1916L272.674 41.9978L252.554 41.9978L252.554 16.1257L272.187 16.1257L272.187 20.932L258.53 20.932L258.53 26.5478L270.592 26.5478L270.592 31.2303L258.53 31.2303L258.53 37.2174L272.674 37.1916Z" fill="black"/>
<path d="M292.572 28.8219C293.046 28.4157 293.42 27.9061 293.664 27.3329C293.908 26.7596 294.017 26.138 293.981 25.5163C294.021 24.8873 293.915 24.2576 293.67 23.6762C293.426 23.0948 293.05 22.5774 292.572 22.1643C291.63 21.3908 290.248 21.004 288.429 21.004L283.519 21.004L283.519 30.0079L288.47 30.0079C290.262 30.0079 291.63 29.6126 292.572 28.8219ZM294.778 17.2704C295.956 17.83 297.001 18.6304 297.847 19.6193C298.693 20.6083 299.321 21.7636 299.688 23.01C300.056 24.2555 300.158 25.5641 299.987 26.8512C299.816 28.1383 299.375 29.3754 298.694 30.4824C297.744 31.9321 296.381 33.0655 294.778 33.7364C292.884 34.5297 290.841 34.9129 288.786 34.8606L283.55 34.8606L283.55 41.9977L277.537 41.9977L277.537 16.1256L288.786 16.1256C290.843 16.0772 292.886 16.4676 294.778 17.2704Z" fill="black"/>
<path d="M309.513 40.7394C307.424 39.6395 305.678 37.9917 304.463 35.9745C303.26 33.8732 302.627 31.496 302.627 29.0771C302.627 26.6582 303.26 24.2811 304.463 22.1798C305.68 20.1642 307.426 18.5168 309.513 17.4148C311.569 16.3889 313.821 15.8122 316.119 15.7233C318.417 15.6344 320.708 16.0353 322.838 16.8991C324.614 17.6572 326.185 18.8236 327.421 20.3027L323.558 23.8506C322.772 22.8851 321.776 22.1091 320.646 21.5804C319.516 21.0518 318.281 20.7842 317.032 20.7977C315.534 20.7651 314.053 21.1205 312.734 21.8291C311.491 22.5108 310.469 23.5303 309.787 24.7685C309.096 26.0886 308.736 27.5551 308.736 29.0436C308.736 30.5321 309.096 31.9986 309.787 33.3187C310.469 34.5569 311.491 35.5764 312.734 36.2581C314.05 36.9755 315.532 37.3397 317.032 37.3152C318.281 37.3314 319.517 37.065 320.648 36.5362C321.778 36.0073 322.773 35.2299 323.558 34.2624L327.421 37.8103C326.189 39.3112 324.609 40.4916 322.817 41.25C320.875 42.06 318.786 42.462 316.68 42.4309C314.187 42.4711 311.723 41.8896 309.513 40.7394Z" fill="black"/>
<path d="M331.363 16.1257L337.339 16.1257L337.339 32.9836L349.733 16.1257L355.378 16.1257L355.378 41.9978L349.437 41.9978L349.437 25.1812L337.039 41.9978L331.363 41.9978L331.363 16.1257Z" fill="black"/>
<path d="M381.692 21.0042L373.375 21.0042L373.375 41.9979L367.466 41.9979L367.466 21.0042L359.189 21.0042L359.189 16.1155L381.723 16.1155L381.692 21.0042Z" fill="black"/>
<path d="M405.598 37.1916L405.598 41.9978L385.478 41.9978L385.478 16.1257L405.112 16.1257L405.112 20.932L391.455 20.932L391.455 26.5478L403.517 26.5478L403.517 31.2303L391.455 31.2303L391.455 37.2174L405.598 37.1916Z" fill="black"/>
<path d="M430.323 21.0042L422.006 21.0042L422.006 41.9979L416.065 41.9979L416.065 21.0042L407.789 21.0042L407.789 16.1155L430.323 16.1155L430.323 21.0042Z" fill="black"/>
<path d="M137.787 58.7217L143.764 58.7217L143.764 75.5795L156.157 58.7217L161.802 58.7217L161.802 84.5989L155.862 84.5989L155.862 67.7978L143.5 84.6093L137.818 84.6093L137.787 58.7217Z" fill="black"/>
<path d="M192.089 58.7217L192.089 84.5989L186.076 84.5989L186.076 73.9964L174.273 73.9964L174.273 84.6041L168.266 84.6041L168.266 58.7217L174.273 58.7217L174.273 68.9272L186.076 68.9272L186.076 58.7217L192.089 58.7217Z" fill="black"/>
<path d="M222.417 58.7217L222.417 84.5989L216.405 84.5989L216.405 73.9964L204.602 73.9964L204.602 84.6041L198.589 84.6041L198.589 58.7217L204.602 58.7217L204.602 68.9272L216.405 68.9272L216.405 58.7217L222.417 58.7217Z" fill="black"/>
<path d="M245.485 78.9004C246.71 78.209 247.719 77.1935 248.4 75.9661C249.089 74.6446 249.449 73.1775 249.449 71.6885C249.449 70.1995 249.089 68.7323 248.4 67.4108C247.722 66.1771 246.713 65.1558 245.485 64.4611C244.209 63.7705 242.78 63.4088 241.328 63.4088C239.877 63.4088 238.448 63.7705 237.172 64.4611C235.944 65.1515 234.935 66.1695 234.256 67.4005C233.562 68.7205 233.2 70.1882 233.2 71.6782C233.2 73.1681 233.562 74.6359 234.256 75.9558C234.935 77.1854 235.945 78.2018 237.172 78.8901C238.446 79.5854 239.875 79.9508 241.327 79.9526C242.78 79.9544 244.209 79.5926 245.485 78.9004ZM234.034 83.3198C231.927 82.2232 230.167 80.5667 228.948 78.5342C227.74 76.4503 227.105 74.0867 227.105 71.6807C227.105 69.2748 227.74 66.9112 228.948 64.8273C230.169 62.7956 231.929 61.1381 234.034 60.0365C236.29 58.8926 238.786 58.2964 241.318 58.2964C243.85 58.2964 246.346 58.8926 248.602 60.0365C250.722 61.1612 252.495 62.8386 253.731 64.8892C254.967 66.9398 255.62 69.2865 255.62 71.6782C255.62 74.0698 254.967 76.4165 253.731 78.4671C252.495 80.5177 250.722 82.1951 248.602 83.3198C246.346 84.4637 243.85 85.06 241.318 85.06C238.786 85.06 236.29 84.4637 234.034 83.3198Z" fill="black"/>
<path d="M283.851 58.7217L283.851 84.5989L277.879 84.5989L277.879 63.6104L266.149 63.6104L266.149 84.6041L260.172 84.6041L260.172 58.7217L283.851 58.7217Z" fill="black"/>
<path d="M306.861 78.9004C308.089 78.2121 309.099 77.1958 309.777 75.9661C310.466 74.6446 310.826 73.1775 310.826 71.6885C310.826 70.1995 310.466 68.7323 309.777 67.4108C309.099 66.1798 308.089 65.1618 306.861 64.4714C305.589 63.7854 304.165 63.4261 302.718 63.4261C301.271 63.4261 299.847 63.7854 298.575 64.4714C297.347 65.1618 296.337 66.1798 295.659 67.4108C294.97 68.7323 294.61 70.1995 294.61 71.6885C294.61 73.1775 294.97 74.6446 295.659 75.9661C296.337 77.1958 297.347 78.2121 298.575 78.9004C299.846 79.5896 301.27 79.9507 302.718 79.9507C304.165 79.9507 305.59 79.5896 306.861 78.9004ZM295.41 83.3198C293.306 82.2197 291.546 80.564 290.324 78.5342C289.123 76.4481 288.491 74.0854 288.491 71.6807C288.491 69.2761 289.123 66.9134 290.324 64.8273C291.547 62.7968 293.306 61.1396 295.41 60.0365C297.666 58.8926 300.162 58.2964 302.694 58.2964C305.226 58.2964 307.722 58.8926 309.979 60.0365C312.078 61.1456 313.836 62.8014 315.064 64.8273C316.002 66.3607 316.615 68.0685 316.866 69.8461C317.117 71.6237 317.001 73.4337 316.524 75.165C316.048 76.8964 315.222 78.5127 314.097 79.9149C312.971 81.3171 311.57 82.4758 309.979 83.3198C307.722 84.4637 305.226 85.06 302.694 85.06C300.162 85.06 297.666 84.4637 295.41 83.3198Z" fill="black"/>
<path d="M343.979 58.7217L343.979 84.5989L338.013 84.5989L338.013 63.6104L329.11 63.6104L328.918 69.0045C328.87 71.9992 328.573 74.9848 328.033 77.9311C327.728 79.8578 326.914 81.6694 325.676 83.1808C325.086 83.8032 324.367 84.2906 323.568 84.6093C322.769 84.9251 321.91 85.0623 321.051 85.0115C320.05 84.9884 319.055 84.8535 318.084 84.6093L318.457 79.5452C318.806 79.647 319.17 79.6956 319.534 79.6896C320.967 79.6896 321.968 78.8473 322.538 77.1627C323.107 75.4781 323.466 72.8309 323.615 69.2211L323.988 58.7217L343.979 58.7217Z" fill="black"/>
<path d="M350.473 58.7217L356.45 58.7217L356.45 75.5795L368.843 58.7217L374.488 58.7217L374.488 84.5989L368.548 84.5989L368.548 67.7978L356.149 84.6093L350.473 84.6093L350.473 58.7217Z" fill="black"/>
<path d="M386.053 83.3355C383.963 82.2359 382.216 80.5859 381.004 78.5654C379.802 76.4654 379.17 74.0901 379.17 71.6732C379.17 69.2563 379.802 66.8811 381.004 64.781C382.216 62.7605 383.963 61.1105 386.053 60.0109C388.11 58.9852 390.364 58.4087 392.662 58.3198C394.961 58.2308 397.253 58.6316 399.384 59.4952C401.157 60.2583 402.727 61.4239 403.967 62.8988L400.109 66.4467C399.319 65.4812 398.321 64.7056 397.188 64.1777C396.055 63.6451 394.815 63.377 393.563 63.3938C392.064 63.3612 390.583 63.7166 389.264 64.4252C388.023 65.1051 387.003 66.123 386.322 67.3595C385.628 68.6794 385.266 70.1471 385.266 71.6371C385.266 73.1271 385.628 74.5948 386.322 75.9148C387.003 77.1527 388.023 78.1722 389.264 78.8542C390.582 79.5691 392.062 79.9333 393.563 79.9114C394.813 79.9264 396.05 79.6596 397.182 79.1309C398.314 78.6022 399.311 77.8253 400.098 76.8585L403.957 80.4012C402.723 81.9006 401.143 83.0808 399.353 83.8409C397.411 84.6525 395.321 85.0563 393.216 85.027C390.724 85.0655 388.262 84.484 386.053 83.3355Z" fill="black"/>
<path d="M28.1168 36.3975L-3.05176e-05 36.3975L-3.08518e-05 100.792L28.1168 100.792L28.1168 36.3975Z" fill="#40BA21"/>
<path d="M73.1016 1.89707e-07L73.1016 72.7895L64.6598 72.7895L64.6598 1.45895e-07L36.5482 0L36.5482 100.781L42.5299 100.781L64.6598 100.781L73.1016 100.781L92.1292 100.781L101.213 100.781L101.213 3.35602e-07L73.1016 1.89707e-07Z" fill="#40BA21"/>
<path d="M28.1168 1.45922e-07L0 0L-1.45299e-07 27.9967L28.1168 27.9967L28.1168 1.45922e-07Z" fill="#40BA21"/>
</g>
<defs>
<clipPath id="clip0_3442_1316">
<rect width="430.323" height="100.786" fill="white"/>
</clipPath>
</defs>
</svg>
