<svg width="171" height="172" viewBox="0 0 171 172" fill="none" xmlns="http://www.w3.org/2000/svg">
<g clip-path="url(#clip0_60_118)">
<path d="M98.192 46.017L98.021 0H72.361L72.532 46.017L85.362 63.636L98.192 46.017ZM72.532 124.878V171.066H98.192V124.878L85.362 107.258L72.532 124.878Z" fill="white"/>
<path d="M98.192 124.878L125.22 162.17L145.919 147.117L118.891 109.824L98.192 103.153V124.878ZM72.532 46.017L45.332 8.724L24.633 23.778L51.662 61.07L72.532 67.742V46.017Z" fill="#00F2E6"/>
<path d="M51.662 61.0699L7.869 46.8719L0 71.1629L43.793 85.5329L64.492 78.6899L51.662 61.0699ZM106.061 92.2039L118.891 109.824L162.684 124.023L170.553 99.7309L126.76 85.5329L106.061 92.2039Z" fill="#00B9F1"/>
<path d="M126.76 85.5329L170.553 71.1629L162.684 46.8719L118.891 61.0699L106.061 78.6899L126.76 85.5329ZM43.793 85.5329L0 99.7309L7.869 124.023L51.662 109.824L64.492 92.2039L43.793 85.5329Z" fill="#D63AFF"/>
<path d="M51.662 109.824L24.633 147.117L45.332 162.17L72.532 124.878V103.153L51.662 109.824ZM118.891 61.07L145.919 23.778L125.22 8.724L98.192 46.017V67.742L118.891 61.07Z" fill="#FB015B"/>
</g>
<defs>
<clipPath id="clip0_60_118">
<rect width="171" height="172" fill="white"/>
</clipPath>
</defs>
</svg>
