<svg xmlns="http://www.w3.org/2000/svg" viewBox="0 0 220 227"><g fill="none" stroke-width="2"><path stroke="gray" d="M181.89 134.88a.84.84 0 0 1-.36-1.22q21.23-32.47 29.06-70.44c2.51-12.17 4.34-27.25-4.78-37.34-17.05-18.84-42.08-22.87-65.97-17.62-3.57.79-7.67 2.36-11.32 1.66C114.36 7.21 100.6 8 88.14 15.83a1.03 1.02 38.8 0 1-.89.09C48.35 1.13 4.01 7.45 6.56 60.25Q6.9 67.14 9 78q5.87 30.27 15.89 55.9 4.38 11.2 9.65 18.31c6.67 9 17.14 15.02 26.13 4.66q9.22-10.62 18.77-21.06.41-.44.93-.17 5.28 2.74 11.2 3.12.71.04.35.65c-4.45 7.56-10.27 7.99-18.07 10.05-11.39 3.02-8.12 11.17.84 14.03q17.59 5.63 31.62-5.34.41-.32.4.21-.73 24.08 1.78 41.13 1.09 7.42 6.29 13.51c8.36 9.8 19.43 8.9 30.55 5.31 13.3-4.3 17.26-12.7 19.54-26.3q3-17.95 4.69-36.11.05-.53.56-.44 15.28 2.58 28.87-2.94c4.17-1.7 13.68-7.6 14.48-12.67.92-5.88-6.07-5.79-9.75-5.03-6.3 1.29-15.76 2.7-21.83.06" vector-effect="non-scaling-stroke"/><path stroke="#99b3c8" d="M142.68 14.62c17.76 8.08 33.14 25.94 38.52 44.68q.9 3.12.55 6.97c-.7 7.79-2.29 15.65-1.83 23.31.85 13.89 3.53 24.15-3.22 37.16q-.22.43.07.83l.22.3q.43.58.81-.03c15.09-24.2 29.76-57.96 27.9-87.01q-.33-5.24-1.48-6.8c-14.38-19.51-38.42-24.77-61.48-19.95q-.86.18-.06.54" vector-effect="non-scaling-stroke"/><path stroke="#99b3c8" d="M71.39 65.61c10.69-6.37 30.92-10.41 35.71 6.06q3.69 12.75 2.6 28.5c-.83 11.91-6.74 22.02-10.36 33.12a.54.54 0 0 0 .56.7c8.86-.75 13.07 6.78 13.07 14.5-.01 19.87-.72 35 1.82 49.99q1.05 6.24 5.45 11.08c6.86 7.54 17.52 5.13 25.65 1.77 9.29-3.85 11.51-11.42 12.86-20.58 2.16-14.66 4.67-29.89 5.25-44.69q.35-8.87 8.74-12.3a.53.53 0 0 0 .21-.82c-2.88-3.57-5.22-6.97-7.46-11.24-6.43-12.27-13.47-24.06-16.65-37.72-4.43-19 7.61-26.64 25.15-24.85q.68.07.44-.57C164 30.97 139.51 13.07 109.31 15.11c-25.99 1.76-36.96 27.77-38.55 50.11a.42.42 0 0 0 .63.39" vector-effect="non-scaling-stroke"/><path stroke="#99b3c8" d="M26.08 119.34c2.36 7.05 16.64 48.45 29.99 33.18q8.92-10.2 18-20.42.36-.41-.03-.78-12.24-11.59-10.74-27.5 1.25-13.22 1.05-23.3-.23-12.14-.04-14.55c1.27-16.26 6.01-32.54 17.36-44.78q.39-.42-.16-.6c-14.7-4.83-35.17-8.2-49.18-1.75-19.23 8.84-21.35 32.19-18.45 50.59q4.02 25.45 12.2 49.91M174.47 65.53c-9.36-.93-20.2-.66-20.26 11.35-.07 13.07 10.56 30.16 17.98 43.66q.23.42.42-.03c4.33-10.71 1.45-23.44 1-33.37-.3-6.59 1.2-13.71 1.76-20.53q.08-.98-.9-1.08" vector-effect="non-scaling-stroke"/><path stroke="#99b3c8" d="M101.02 73.49c-3.28-12.95-22.54-5.32-29.21-.94-1.34.88-1.41 1.71-1.31 3.2q.8 11.81-.34 24.59-.74 8.33-.08 11.78c2.02 10.71 10.88 19.77 22.28 20.24q.51.03.67-.46c3.1-9.08 8.24-19.37 9.85-27.47 1.97-9.87.6-21.21-1.86-30.94M204.23 141.31c-9.36 1.41-18.55 2.91-26.73-1.69a1.54 1.53-36.1 0 0-1.04-.16q-7.18 1.41-5.8 8.99.1.59.69.73c10.99 2.67 24.67-.71 33.13-7.31q.95-.74-.25-.56M104.49 150.74c5.25-6.16-2.16-14.29-6.4-8.4-6.54 9.09-12.64 11.45-23.46 13.2a.6.6 0 0 0-.14 1.14c10.33 4.44 22.56 2.8 30-5.94M168.4 68.71q-4.6-1.11-8.24.97c-4.11 2.37 4.63 9.08 9.18 1.25a1.51 1.5-68 0 0-.94-2.22" vector-effect="non-scaling-stroke"/><path stroke="#99b3c8" d="M97.58 71.72q-4.45-2.8-9.52-1.15a1.72 1.71 73 0 0-1.12 2.11c1.49 5.07 8.69 6.49 11.3 1.45a1.84 1.84 0 0 0-.66-2.41" vector-effect="non-scaling-stroke"/></g><path d="M158.07 0h2.89q30.85.84 50.49 22.73c6.94 7.73 8.12 17.54 7.37 27.85-2 27.4-13.04 55.3-26.85 78.89a.6.6 0 0 0 .57.9c10.12-.97 23.26-6.57 27.46 7.1v4.13q-1.86 5.7-7.7 10.47c-10.61 8.66-23.75 11.48-37.18 10.88a.93.92-88.2 0 0-.96.91c-.39 21.45-2.39 51.01-26.66 59.59-42.54 15.05-45.86-25.02-45.76-53.55a.65.65 0 0 0-.88-.61c-11.44 4.35-27.9 4-37.38-5.03q-.38-.37-.83-.08c-2.11 1.36-4.21 2.96-6.48 3.68-25.28 8-38.38-33.1-43.89-50.62Q3.38 88.95.58 65.19q-.83-6.98.08-15.71C5.57 2.41 46.4-3.97 84.21 8.71c1.07.36 3.05.52 4.07.01 13.66-6.94 26.46-6.92 41.5-5.17q2.46.29 4.91-.35 11.46-3 23.38-3.2Zm23.82 134.88a.84.84 0 0 1-.36-1.22q21.23-32.47 29.06-70.44c2.51-12.17 4.34-27.25-4.78-37.34-17.05-18.84-42.08-22.87-65.97-17.62-3.57.79-7.67 2.36-11.32 1.66C114.36 7.21 100.6 8 88.14 15.83a1.03 1.02 38.8 0 1-.89.09C48.35 1.13 4.01 7.45 6.56 60.25Q6.9 67.14 9 78q5.87 30.27 15.89 55.9 4.38 11.2 9.65 18.31c6.67 9 17.14 15.02 26.13 4.66q9.22-10.62 18.77-21.06.41-.44.93-.17 5.28 2.74 11.2 3.12.71.04.35.65c-4.45 7.56-10.27 7.99-18.07 10.05-11.39 3.02-8.12 11.17.84 14.03q17.59 5.63 31.62-5.34.41-.32.4.21-.73 24.08 1.78 41.13 1.09 7.42 6.29 13.51c8.36 9.8 19.43 8.9 30.55 5.31 13.3-4.3 17.26-12.7 19.54-26.3q3-17.95 4.69-36.11.05-.53.56-.44 15.28 2.58 28.87-2.94c4.17-1.7 13.68-7.6 14.48-12.67.92-5.88-6.07-5.79-9.75-5.03-6.3 1.29-15.76 2.7-21.83.06Z"/><path fill="#fff" d="M181.89 134.88c6.07 2.64 15.53 1.23 21.83-.06 3.68-.76 10.67-.85 9.75 5.03-.8 5.07-10.31 10.97-14.48 12.67q-13.59 5.52-28.87 2.94-.51-.09-.56.44-1.69 18.16-4.69 36.11c-2.28 13.6-6.24 22-19.54 26.3-11.12 3.59-22.19 4.49-30.55-5.31q-5.2-6.09-6.29-13.51-2.51-17.05-1.78-41.13.01-.53-.4-.21-14.03 10.97-31.62 5.34c-8.96-2.86-12.23-11.01-.84-14.03 7.8-2.06 13.62-2.49 18.07-10.05q.36-.61-.35-.65-5.92-.38-11.2-3.12-.52-.27-.93.17-9.55 10.44-18.77 21.06c-8.99 10.36-19.46 4.34-26.13-4.66q-5.27-7.11-9.65-18.31Q14.87 108.27 9 78 6.9 67.14 6.56 60.25C4.01 7.45 48.35 1.13 87.25 15.92a1.03 1.02 38.8 0 0 .89-.09C100.6 8 114.36 7.21 128.52 9.92c3.65.7 7.75-.87 11.32-1.66 23.89-5.25 48.92-1.22 65.97 17.62 9.12 10.09 7.29 25.17 4.78 37.34q-7.83 37.97-29.06 70.44a.84.84 0 0 0 .36 1.22ZM142.68 14.62c17.76 8.08 33.14 25.94 38.52 44.68q.9 3.12.55 6.97c-.7 7.79-2.29 15.65-1.83 23.31.85 13.89 3.53 24.15-3.22 37.16q-.22.43.07.83l.22.3q.43.58.81-.03c15.09-24.2 29.76-57.96 27.9-87.01q-.33-5.24-1.48-6.8c-14.38-19.51-38.42-24.77-61.48-19.95q-.86.18-.06.54ZM71.39 65.61c10.69-6.37 30.92-10.41 35.71 6.06q3.69 12.75 2.6 28.5c-.83 11.91-6.74 22.02-10.36 33.12a.54.54 0 0 0 .56.7c8.86-.75 13.07 6.78 13.07 14.5-.01 19.87-.72 35 1.82 49.99q1.05 6.24 5.45 11.08c6.86 7.54 17.52 5.13 25.65 1.77 9.29-3.85 11.51-11.42 12.86-20.58 2.16-14.66 4.67-29.89 5.25-44.69q.35-8.87 8.74-12.3a.53.53 0 0 0 .21-.82c-2.88-3.57-5.22-6.97-7.46-11.24-6.43-12.27-13.47-24.06-16.65-37.72-4.43-19 7.61-26.64 25.15-24.85q.68.07.44-.57C164 30.97 139.51 13.07 109.31 15.11c-25.99 1.76-36.96 27.77-38.55 50.11a.42.42 0 0 0 .63.39Zm-45.31 53.73c2.36 7.05 16.64 48.45 29.99 33.18q8.92-10.2 18-20.42.36-.41-.03-.78-12.24-11.59-10.74-27.5 1.25-13.22 1.05-23.3-.23-12.14-.04-14.55c1.27-16.26 6.01-32.54 17.36-44.78q.39-.42-.16-.6c-14.7-4.83-35.17-8.2-49.18-1.75-19.23 8.84-21.35 32.19-18.45 50.59q4.02 25.45 12.2 49.91Zm148.39-53.81c-9.36-.93-20.2-.66-20.26 11.35-.07 13.07 10.56 30.16 17.98 43.66q.23.42.42-.03c4.33-10.71 1.45-23.44 1-33.37-.3-6.59 1.2-13.71 1.76-20.53q.08-.98-.9-1.08Zm-73.45 7.96c-3.28-12.95-22.54-5.32-29.21-.94-1.34.88-1.41 1.71-1.31 3.2q.8 11.81-.34 24.59-.74 8.33-.08 11.78c2.02 10.71 10.88 19.77 22.28 20.24q.51.03.67-.46c3.1-9.08 8.24-19.37 9.85-27.47 1.97-9.87.6-21.21-1.86-30.94Zm103.21 67.82c-9.36 1.41-18.55 2.91-26.73-1.69a1.54 1.53-36.1 0 0-1.04-.16q-7.18 1.41-5.8 8.99.1.59.69.73c10.99 2.67 24.67-.71 33.13-7.31q.95-.74-.25-.56Zm-99.74 9.43c5.25-6.16-2.16-14.29-6.4-8.4-6.54 9.09-12.64 11.45-23.46 13.2a.6.6 0 0 0-.14 1.14c10.33 4.44 22.56 2.8 30-5.94Z"/><path fill="#336791" d="M181.2 59.3c-5.38-18.74-20.76-36.6-38.52-44.68q-.8-.36.06-.54c23.06-4.82 47.1.44 61.48 19.95q1.15 1.56 1.48 6.8c1.86 29.05-12.81 62.81-27.9 87.01q-.38.61-.81.03l-.22-.3q-.29-.4-.07-.83c6.75-13.01 4.07-23.27 3.22-37.16-.46-7.66 1.13-15.52 1.83-23.31q.35-3.85-.55-6.97Z"/><path fill="#336791" d="M107.1 71.67c-4.79-16.47-25.02-12.43-35.71-6.06a.42.42 0 0 1-.63-.39c1.59-22.34 12.56-48.35 38.55-50.11 30.2-2.04 54.69 15.86 65.12 43.45q.24.64-.44.57c-17.54-1.79-29.58 5.85-25.15 24.85 3.18 13.66 10.22 25.45 16.65 37.72 2.24 4.27 4.58 7.67 7.46 11.24a.53.53 0 0 1-.21.82q-8.39 3.43-8.74 12.3c-.58 14.8-3.09 30.03-5.25 44.69-1.35 9.16-3.57 16.73-12.86 20.58-8.13 3.36-18.79 5.77-25.65-1.77q-4.4-4.84-5.45-11.08c-2.54-14.99-1.83-30.12-1.82-49.99 0-7.72-4.21-15.25-13.07-14.5a.54.54 0 0 1-.56-.7c3.62-11.1 9.53-21.21 10.36-33.12q1.09-15.75-2.6-28.5Z"/><path fill="#336791" d="M56.07 152.52c-13.35 15.27-27.63-26.13-29.99-33.18q-8.18-24.46-12.2-49.91c-2.9-18.4-.78-41.75 18.45-50.59 14.01-6.45 34.48-3.08 49.18 1.75q.55.18.16.6C70.32 33.43 65.58 49.71 64.31 65.97q-.19 2.41.04 14.55.2 10.08-1.05 23.3-1.5 15.91 10.74 27.5.39.37.03.78-9.08 10.22-18 20.42ZM174.47 65.53q.98.1.9 1.08c-.56 6.82-2.06 13.94-1.76 20.53.45 9.93 3.33 22.66-1 33.37q-.19.45-.42.03c-7.42-13.5-18.05-30.59-17.98-43.66.06-12.01 10.9-12.28 20.26-11.35Zm-6.07 3.18q-4.6-1.11-8.24.97c-4.11 2.37 4.63 9.08 9.18 1.25a1.51 1.5-68 0 0-.94-2.22Z"/><path fill="#336791" d="M71.81 72.55c6.67-4.38 25.93-12.01 29.21.94 2.46 9.73 3.83 21.07 1.86 30.94-1.61 8.1-6.75 18.39-9.85 27.47q-.16.49-.67.46c-11.4-.47-20.26-9.53-22.28-20.24q-.66-3.45.08-11.78 1.14-12.78.34-24.59c-.1-1.49-.03-2.32 1.31-3.2Zm25.77-.83q-4.45-2.8-9.52-1.15a1.72 1.71 73 0 0-1.12 2.11c1.49 5.07 8.69 6.49 11.3 1.45a1.84 1.84 0 0 0-.66-2.41Z"/><path fill="#fff" d="M168.4 68.71a1.51 1.5-68 0 1 .94 2.22c-4.55 7.83-13.29 1.12-9.18-1.25q3.64-2.08 8.24-.97ZM97.58 71.72a1.84 1.84 0 0 1 .66 2.41c-2.61 5.04-9.81 3.62-11.3-1.45a1.72 1.71 73 0 1 1.12-2.11q5.07-1.65 9.52 1.15Z"/><path fill="#336791" d="M177.5 139.62c8.18 4.6 17.37 3.1 26.73 1.69q1.2-.18.25.56c-8.46 6.6-22.14 9.98-33.13 7.31q-.59-.14-.69-.73-1.38-7.58 5.8-8.99a1.54 1.53-36.1 0 1 1.04.16ZM98.09 142.34c4.24-5.89 11.65 2.24 6.4 8.4-7.44 8.74-19.67 10.38-30 5.94a.6.6 0 0 1 .14-1.14c10.82-1.75 16.92-4.11 23.46-13.2Z"/></svg>