<svg width="159" height="137" viewBox="0 0 159 137" fill="none" xmlns="http://www.w3.org/2000/svg">
<g clip-path="url(#clip0_11_126)">
<path d="M159 31.1624L158.875 31.1997C158.811 31.2193 158.765 31.2602 158.739 31.3224C157.768 33.6861 152.707 36.0684 149.916 37.3383C129.462 46.6488 108.437 54.7829 88.229 64.6137C87.1246 65.1508 85.7773 65.6746 84.1873 66.185C78.9398 67.8684 74.5353 67.0921 69.6346 64.8832C65.391 62.973 59.9896 60.6574 53.4304 57.9362C38.208 51.6216 22.9003 45.4457 7.82197 38.7976C6.77442 38.3351 5.30536 37.581 3.41479 36.5353C1.89415 35.6923 0.747892 34.5851 -0.0239868 33.2139" stroke="#AC2B29" stroke-width="2"/>
<path d="M88.3971 16.1961L91.0942 9.72936C91.0987 9.72019 91.1003 9.70989 91.0988 9.69981C91.0973 9.68972 91.0928 9.68032 91.0859 9.67283C91.079 9.66534 91.07 9.66011 91.06 9.65782C91.0501 9.65553 91.0397 9.65629 91.0302 9.66L80.8686 12.9867C80.785 13.0134 80.7014 13.0107 80.6178 12.9787L69.9574 8.8063C69.9396 8.79907 69.92 8.79751 69.9012 8.80183C69.8825 8.80614 69.8656 8.81613 69.8527 8.83043C69.8399 8.84472 69.8318 8.86263 69.8295 8.88171C69.8272 8.90079 69.8309 8.9201 69.84 8.93703L73.18 15.1183C73.2227 15.1965 73.2014 15.2517 73.116 15.2837L61.818 19.3467C61.5654 19.4374 61.5725 19.4952 61.8393 19.5201L77.1204 20.8914C77.2075 20.8985 77.2742 20.9403 77.3204 21.0168L82.1198 28.9854C82.1275 28.9978 82.1385 29.0079 82.1515 29.0145C82.1646 29.0211 82.1792 29.024 82.1937 29.0229C82.2083 29.0218 82.2223 29.0167 82.2342 29.0082C82.2461 28.9997 82.2554 28.9882 82.2612 28.9748L85.2118 21.8598C85.2246 21.8291 85.2455 21.8025 85.2723 21.7828C85.2991 21.763 85.3307 21.7509 85.3638 21.7477L98.6521 20.3685C98.8459 20.3489 98.8521 20.3045 98.6707 20.2351L88.5011 16.4335C88.3838 16.3908 88.3491 16.3117 88.3971 16.1961Z" stroke="#E39895" stroke-width="2"/>
<path d="M115.248 39.3392L136.497 30.9597C136.512 30.9544 136.525 30.9448 136.534 30.932C136.543 30.9192 136.548 30.9039 136.548 30.888C136.548 30.8721 136.543 30.8565 136.534 30.8431C136.525 30.8297 136.512 30.8192 136.497 30.8129L115.174 22.3694" stroke="#942624" stroke-width="2"/>
<path d="M115.174 22.3694C107.282 25.4071 99.4213 28.4964 91.5905 31.6373C91.4855 31.68 91.409 31.7315 91.361 31.792C91.3112 31.8489 91.3219 31.8916 91.393 31.9201L112.597 40.2916C112.693 40.3289 112.789 40.3289 112.885 40.2916L115.248 39.3392" stroke="#AC2B29" stroke-width="2"/>
<path d="M115.174 22.3694L115.248 39.3392" stroke="#7A2121" stroke-width="2"/>
<path d="M65.5261 31.9973C65.5261 29.9936 63.471 28.0719 59.8127 26.655C56.1545 25.2381 51.1928 24.4421 46.0193 24.4421C40.8458 24.4421 35.8841 25.2381 32.2259 26.655C28.5676 28.0719 26.5125 29.9936 26.5125 31.9973C26.5125 34.0011 28.5676 35.9227 32.2259 37.3396C35.8841 38.7565 40.8458 39.5525 46.0193 39.5525C51.1928 39.5525 56.1545 38.7565 59.8127 37.3396C63.471 35.9227 65.5261 34.0011 65.5261 31.9973ZM56.1836 45.4163C56.164 45.4192 56.1459 45.4285 56.1321 45.4427C56.1183 45.4569 56.1095 45.4752 56.1071 45.4949C56.1047 45.5145 56.1088 45.5344 56.1187 45.5515C56.1287 45.5687 56.1439 45.5821 56.1622 45.5897L81.3088 56.018C81.3282 56.0267 81.3501 56.0283 81.3706 56.0224C81.3911 56.0166 81.4089 56.0037 81.4208 55.986L92.3107 40.03C92.3208 40.0155 92.3264 39.9983 92.3269 39.9806C92.3273 39.9629 92.3225 39.9454 92.3132 39.9304C92.3038 39.9153 92.2903 39.9034 92.2742 39.8959C92.2581 39.8885 92.2402 39.886 92.2227 39.8886L56.1836 45.4163Z" stroke="#E39895" stroke-width="2"/>
<path d="M151.586 52.5553C135.582 59.8864 119.311 66.6732 103.169 73.6975C98.3791 75.7819 93.6402 77.9757 88.952 80.2789C83.2029 83.1014 77.6539 84.1632 71.5927 81.6288C69.3624 80.6969 67.1393 79.748 64.9232 78.7823C45.8593 70.4748 26.4565 62.9543 7.40314 54.6122" stroke="#AC2B29" stroke-width="2"/>
<path d="M159 58.1069C157.031 61.0362 152.869 62.965 149.743 64.3896C133.976 71.5739 108.822 81.8129 88.1436 91.6197C82.4399 94.3248 76.8375 95.0051 71.0271 92.4387C52.0645 84.0698 32.3922 76.2212 13.1015 68.0524C9.54267 66.5478 5.89314 65.0805 2.62777 62.9943C1.55354 62.3078 0.677617 61.4239 0 60.3425" stroke="#AC2B29" stroke-width="2"/>
<path d="M152.664 78.9557C148.922 80.7467 145.148 82.4683 141.342 84.1205C129.984 89.0453 118.62 93.9558 107.25 98.852C101.12 101.491 95.0532 104.268 89.0507 107.181C83.5311 109.859 78.1715 111.1 72.1823 108.891C69.1517 107.77 64.5765 105.546 60.8923 104.006C47.8788 98.5692 34.8573 93.1501 21.8279 87.7487C16.6079 85.586 11.4217 83.3442 6.26935 81.0232" stroke="#AC2B29" stroke-width="2"/>
<path d="M158.989 84.1072C158.769 84.3366 158.57 84.5847 158.394 84.8515C156.839 87.1965 152.208 89.2453 149.593 90.4325C133.371 97.8036 116.9 104.636 100.584 111.799C96.7419 113.485 93.0097 115.262 89.2881 117.118C86.7075 118.404 84.2905 119.271 82.0371 119.719C77.5045 120.621 73.5722 119.677 69.3651 117.708C66.6742 116.449 61.1759 114.101 52.8702 110.665C40.1466 105.399 27.4382 100.096 14.7448 94.757C10.5938 93.0122 6.23995 91.3209 2.45169 88.8558C1.37035 88.1533 0.553121 87.297 0 86.2868" stroke="#AC2B29" stroke-width="2"/>
<path d="M159 30.4954V31.1624L158.875 31.1997C158.811 31.2193 158.765 31.2602 158.739 31.3225C157.768 33.6861 152.707 36.0685 149.916 37.3383C129.462 46.6489 108.437 54.783 88.229 64.6138C87.1246 65.1509 85.7773 65.6746 84.1873 66.1851C78.9398 67.8685 74.5353 67.0921 69.6346 64.8832C65.391 62.9731 59.9896 60.6574 53.4304 57.9363C38.208 51.6216 22.9003 45.4457 7.82197 38.7976C6.77442 38.3352 5.30536 37.5811 3.41479 36.5353C1.89415 35.6923 0.747892 34.5852 -0.0239868 33.2139L2.32514e-05 32.7977C0.698983 30.1593 4.32717 28.8281 6.32267 28.0464C24.2395 21.0124 42.1777 14.0325 60.1372 7.10698C64.66 5.36402 69.2068 3.68688 73.7776 2.07553C79.2946 0.133385 84.4408 -0.224098 90.0564 1.78474C94.2502 3.28582 96.9509 4.27379 98.1585 4.74865C116.278 11.8699 134.408 18.9626 152.549 26.0269C154.641 26.8433 158.437 27.9504 159 30.4954ZM88.3971 16.1961L91.0942 9.72941C91.0987 9.72024 91.1003 9.70994 91.0988 9.69986C91.0973 9.68977 91.0928 9.68037 91.0859 9.67288C91.079 9.66539 91.0699 9.66016 91.06 9.65787C91.0501 9.65558 91.0397 9.65634 91.0302 9.66005L80.8686 12.9868C80.785 13.0135 80.7014 13.0108 80.6178 12.9788L69.9574 8.80635C69.9396 8.79912 69.92 8.79756 69.9012 8.80188C69.8825 8.80619 69.8656 8.81618 69.8527 8.83048C69.8399 8.84477 69.8318 8.86268 69.8295 8.88176C69.8272 8.90084 69.8309 8.92015 69.84 8.93708L73.18 15.1183C73.2227 15.1966 73.2014 15.2517 73.116 15.2837L61.8179 19.3468C61.5654 19.4375 61.5725 19.4953 61.8393 19.5202L77.1204 20.8914C77.2075 20.8985 77.2742 20.9403 77.3204 21.0168L82.1198 28.9855C82.1275 28.9979 82.1385 29.0079 82.1515 29.0145C82.1646 29.0211 82.1791 29.024 82.1937 29.0229C82.2083 29.0218 82.2223 29.0168 82.2342 29.0083C82.2461 28.9998 82.2554 28.9882 82.2612 28.9748L85.2118 21.8598C85.2246 21.8292 85.2455 21.8025 85.2723 21.7828C85.2991 21.7631 85.3307 21.751 85.3638 21.7478L98.6521 20.3685C98.8459 20.349 98.8521 20.3045 98.6707 20.2351L88.5011 16.4336C88.3837 16.3909 88.3491 16.3117 88.3971 16.1961ZM115.248 39.3392L136.497 30.9596C136.512 30.9544 136.525 30.9448 136.534 30.932C136.543 30.9192 136.548 30.9039 136.548 30.888C136.548 30.8721 136.543 30.8565 136.534 30.8431C136.525 30.8297 136.512 30.8191 136.497 30.8129L115.174 22.3694C107.282 25.4071 99.4213 28.4964 91.5904 31.6373C91.4855 31.6799 91.409 31.7315 91.361 31.792C91.3112 31.8489 91.3219 31.8916 91.393 31.92L112.597 40.2916C112.693 40.3289 112.789 40.3289 112.885 40.2916L115.248 39.3392ZM65.5262 31.9974C65.5262 29.9937 63.471 28.072 59.8127 26.6551C56.1545 25.2382 51.1929 24.4422 46.0193 24.4422C40.8458 24.4422 35.8841 25.2382 32.2259 26.6551C28.5677 28.072 26.5125 29.9937 26.5125 31.9974C26.5125 34.0012 28.5677 35.9229 32.2259 37.3397C35.8841 38.7566 40.8458 39.5526 46.0193 39.5526C51.1929 39.5526 56.1545 38.7566 59.8127 37.3397C63.471 35.9229 65.5262 34.0012 65.5262 31.9974ZM56.1836 45.4164C56.164 45.4193 56.1459 45.4286 56.1321 45.4428C56.1183 45.457 56.1095 45.4753 56.1071 45.495C56.1047 45.5146 56.1088 45.5345 56.1187 45.5517C56.1287 45.5688 56.144 45.5822 56.1622 45.5898L81.3088 56.0182C81.3282 56.0268 81.3501 56.0284 81.3706 56.0225C81.3911 56.0167 81.4089 56.0038 81.4208 55.9861L92.3107 40.0301C92.3208 40.0156 92.3264 39.9984 92.3269 39.9807C92.3273 39.963 92.3226 39.9455 92.3132 39.9305C92.3038 39.9154 92.2903 39.9035 92.2742 39.896C92.2581 39.8886 92.2402 39.8861 92.2227 39.8887L56.1836 45.4164Z" fill="#C6302B"/>
<path d="M88.5011 16.4335L98.6707 20.2351C98.8521 20.3045 98.8459 20.3489 98.652 20.3685L85.3638 21.7477C85.3307 21.7509 85.299 21.763 85.2723 21.7828C85.2455 21.8025 85.2246 21.8291 85.2117 21.8598L82.2611 28.9748C82.2553 28.9882 82.246 28.9997 82.2341 29.0082C82.2222 29.0167 82.2082 29.0218 82.1937 29.0229C82.1791 29.024 82.1645 29.0211 82.1515 29.0145C82.1384 29.0079 82.1275 28.9978 82.1197 28.9854L77.3204 21.0168C77.2741 20.9403 77.2075 20.8985 77.1203 20.8914L61.8392 19.5201C61.5725 19.4952 61.5653 19.4374 61.8179 19.3467L73.116 15.2837C73.2013 15.2517 73.2227 15.1965 73.18 15.1183L69.8399 8.93703C69.8308 8.9201 69.8272 8.90079 69.8295 8.88171C69.8317 8.86263 69.8399 8.84472 69.8527 8.83043C69.8655 8.81613 69.8825 8.80614 69.9012 8.80183C69.9199 8.79751 69.9395 8.79907 69.9573 8.8063L80.6178 12.9787C80.7014 13.0107 80.785 13.0134 80.8685 12.9867L91.0301 9.66C91.0396 9.65629 91.05 9.65553 91.06 9.65782C91.0699 9.66011 91.0789 9.66534 91.0858 9.67283C91.0927 9.68032 91.0972 9.68972 91.0987 9.69981C91.1002 9.70989 91.0986 9.72019 91.0942 9.72936L88.397 16.1961C88.349 16.3117 88.3837 16.3908 88.5011 16.4335Z" fill="white"/>
<path d="M115.174 22.3694L115.248 39.3392L112.885 40.2916C112.789 40.3289 112.693 40.3289 112.597 40.2916L91.393 31.9201C91.3218 31.8916 91.3112 31.8489 91.361 31.792C91.409 31.7315 91.4855 31.68 91.5904 31.6373C99.4212 28.4964 107.282 25.4071 115.174 22.3694Z" fill="#912626"/>
<path d="M115.174 22.3694L136.497 30.8129C136.512 30.8192 136.525 30.8297 136.534 30.8431C136.543 30.8565 136.548 30.8721 136.548 30.888C136.548 30.9039 136.543 30.9192 136.534 30.932C136.525 30.9448 136.512 30.9544 136.497 30.9597L115.248 39.3392L115.174 22.3694Z" fill="#621B1C"/>
<path d="M46.0193 39.5526C56.7926 39.5526 65.5261 36.17 65.5261 31.9974C65.5261 27.8248 56.7926 24.4423 46.0193 24.4423C35.246 24.4423 26.5125 27.8248 26.5125 31.9974C26.5125 36.17 35.246 39.5526 46.0193 39.5526Z" fill="white"/>
<path d="M159 31.1624V46.0353C158.784 49.0072 154.15 51.3228 151.768 52.3659C151.693 52.4006 151.632 52.4913 151.586 52.5553C135.582 59.8864 119.311 66.6732 103.169 73.6975C98.3791 75.782 93.6402 77.9758 88.952 80.279C83.2029 83.1015 77.6539 84.1632 71.5927 81.6289C69.3624 80.6969 67.1393 79.7481 64.9232 78.7823C45.8593 70.4748 26.4564 62.9544 7.40313 54.6122C5.12484 53.5984 0.442876 51.5416 2.32514e-05 48.671L-0.0239868 33.2139C0.747892 34.5851 1.89415 35.6923 3.41479 36.5353C5.30536 37.581 6.77442 38.3351 7.82197 38.7976C22.9003 45.4457 38.208 51.6216 53.4304 57.9362C59.9896 60.6574 65.391 62.973 69.6346 64.8832C74.5353 67.0921 78.9398 67.8684 84.1873 66.185C85.7773 65.6746 87.1246 65.1508 88.229 64.6137C108.437 54.7829 129.462 46.6488 149.916 37.3383C152.707 36.0684 157.768 33.6861 158.739 31.3224C158.765 31.2602 158.811 31.2193 158.875 31.1997L159 31.1624Z" fill="#912626"/>
<path d="M56.1835 45.4164L92.2226 39.8887C92.2402 39.8861 92.2581 39.8886 92.2741 39.896C92.2902 39.9035 92.3038 39.9154 92.3132 39.9305C92.3225 39.9455 92.3273 39.9629 92.3268 39.9806C92.3264 39.9984 92.3208 40.0155 92.3107 40.0301L81.4208 55.9861C81.4088 56.0038 81.3911 56.0166 81.3706 56.0225C81.3501 56.0284 81.3282 56.0268 81.3087 56.0181L56.1622 45.5898C56.1439 45.5821 56.1286 45.5688 56.1187 45.5516C56.1087 45.5345 56.1046 45.5146 56.1071 45.495C56.1095 45.4753 56.1183 45.457 56.1321 45.4428C56.1459 45.4286 56.164 45.4193 56.1835 45.4164Z" fill="white"/>
<path d="M151.586 52.5554C153.83 53.3478 158.352 54.8017 159 57.5068V58.1071C157.031 61.0363 152.869 62.9651 149.743 64.3897C133.976 71.5741 108.822 81.813 88.1436 91.6198C82.4399 94.3249 76.8375 95.0052 71.0271 92.4388C52.0645 84.07 32.3923 76.2213 13.1015 68.0526C9.54267 66.548 5.89314 65.0807 2.62777 62.9945C1.55354 62.308 0.677617 61.424 0 60.3427V59.7424C0.557567 57.0506 5.04478 55.474 7.4031 54.6123C26.4564 62.9544 45.8592 70.4749 64.9232 78.7824C67.1393 79.7482 69.3624 80.697 71.5927 81.6289C77.6539 84.1633 83.2029 83.1016 88.952 80.279C93.6402 77.9759 98.379 75.782 103.169 73.6976C119.311 66.6733 135.582 59.8865 151.586 52.5554Z" fill="#C6302B"/>
<path d="M159 58.1071V72.98C158.867 75.7118 154.902 77.83 152.664 78.9558C148.922 80.7468 145.148 82.4684 141.342 84.1206C129.984 89.0454 118.62 93.9559 107.25 98.8521C101.12 101.491 95.0532 104.268 89.0507 107.181C83.531 109.859 78.1714 111.1 72.1823 108.891C69.1517 107.771 64.5764 105.546 60.8922 104.006C47.8787 98.5694 34.8573 93.1502 21.8278 87.7488C16.6079 85.5861 11.4217 83.3443 6.2693 81.0233C4.18042 80.0629 0.306795 78.1928 0 75.6157V60.3427C0.677617 61.424 1.55354 62.3079 2.62777 62.9944C5.89314 65.0806 9.54267 66.5479 13.1015 68.0526C32.3923 76.2213 52.0645 84.0699 71.0271 92.4388C76.8375 95.0052 82.4399 94.3249 88.1436 91.6198C108.822 81.813 133.976 71.574 149.743 64.3897C152.869 62.9651 157.031 61.0363 159 58.1071Z" fill="#912626"/>
<path d="M152.664 78.9558C154.756 79.7188 158.45 81.0767 159 83.451L158.989 84.1073C158.769 84.3367 158.57 84.5848 158.394 84.8516C156.839 87.1966 152.208 89.2455 149.593 90.4326C133.371 97.8037 116.9 104.636 100.584 111.799C96.7419 113.485 93.0097 115.262 89.2881 117.118C86.7075 118.404 84.2905 119.271 82.0371 119.72C77.5045 120.621 73.5722 119.677 69.3651 117.708C66.6742 116.449 61.1759 114.101 52.8702 110.665C40.1466 105.399 27.4382 100.096 14.7448 94.7571C10.5938 93.0124 6.23995 91.321 2.45169 88.856C1.37035 88.1534 0.553121 87.2971 0 86.2869V85.6199C0.72297 83.1869 4.11906 81.861 6.2693 81.0233C11.4217 83.3443 16.6079 85.5862 21.8278 87.7488C34.8573 93.1502 47.8787 98.5694 60.8922 104.006C64.5764 105.546 69.1517 107.771 72.1823 108.891C78.1714 111.1 83.531 109.859 89.0507 107.181C95.0532 104.268 101.12 101.491 107.25 98.8522C118.62 93.9559 129.984 89.0454 141.342 84.1206C145.148 82.4684 148.922 80.7468 152.664 78.9558Z" fill="#C6302B"/>
<path d="M158.989 84.1073L159 98.8575C158.899 100.227 158.253 101.336 157.063 102.184C154.892 103.728 152.759 104.979 150.666 105.938C130.007 115.392 108.731 123.561 88.301 133.501C81.5462 136.791 76.0586 136.796 69.2957 133.659C67.1437 132.661 62.9766 130.875 56.7945 128.302C43.1052 122.607 29.4239 116.891 15.7506 111.153C12.6382 109.846 9.548 108.492 6.48005 107.09C4.35383 106.117 0.0880369 104.142 0 101.493V86.2869C0.553121 87.2971 1.37035 88.1534 2.45169 88.856C6.23995 91.321 10.5938 93.0124 14.7448 94.7571C27.4382 100.096 40.1466 105.399 52.8702 110.665C61.1759 114.101 66.6742 116.449 69.3651 117.708C73.5722 119.677 77.5045 120.621 82.0371 119.72C84.2905 119.271 86.7075 118.404 89.2881 117.118C93.0097 115.262 96.7419 113.485 100.584 111.799C116.9 104.636 133.371 97.8037 149.593 90.4326C152.208 89.2455 156.839 87.1966 158.394 84.8516C158.57 84.5848 158.769 84.3367 158.989 84.1073Z" fill="#912626"/>
</g>
<defs>
<clipPath id="clip0_11_126">
<rect width="159" height="136.591" fill="white"/>
</clipPath>
</defs>
</svg>
