<svg xmlns="http://www.w3.org/2000/svg" viewBox="0 0 739 284"><path fill="#0fb393" d="M687.45 142.19c-15.05-5.28-14.75-19.27-12.48-33.05q1.33-8.05 2.51-16.13c1.54-10.56 2.62-24.94-10.46-29.04-3-.93-7.91.37-10.27-2.32-1.84-2.08-1.31-6.59-1.18-9.27a1.49 1.48-89.2 0 1 1.45-1.41c22.58-.53 37.21 9.39 37.24 32.8.01 13.34-4.69 26.3-4.89 38.97q-.22 13.45 13.05 14.34.58.04.58.62v9.55q0 .51-.49.64c-1.52.41-3.34.49-4.62.93-6.28 2.13-9.25 8.16-8.74 14.54q1.02 12.77 3.48 25.36c5.47 28.06-6.46 46.68-36.78 45.13q-.48-.03-.46-.5l.37-9.47a.83.82 77.3 0 1 .43-.69c3.72-2 7.28-1.22 10.31-2.07 11.49-3.26 12.92-15.21 11.5-25.62-1.39-10.18-3.87-20.57-4.38-30.8-.49-10.13 4.29-17.83 13.85-21.75a.41.41 0 0 0-.02-.76ZM52.42 143.12q10.96 4.95 13.1 15.6.89 4.42-.41 13.44c-1.06 7.29-2.58 14.6-3.3 21.83-.94 9.46-2.11 22.4 9.54 26.84 3.62 1.38 9.32-.51 11.8 3.13 1.4 2.06.91 6.91.82 9.42q-.02.53-.55.55-6.3.23-8.66.07c-11.57-.81-22.08-7-26.77-17.68-5.94-13.54-.91-31.63 1.59-45.52 1.79-9.96-.02-22.09-12.53-22.23q-.55-.01-.55-.55v-9.99q0-.44.43-.53 1.97-.41 3.92-.73c6.77-1.09 9.65-9.12 9.15-15.28q-1.08-13.4-4.05-26.52c-.5-2.22-.84-5.99-.98-8.46-1.32-24.12 15.46-37.28 38.36-34.64a.74.73-87.4 0 1 .65.72c.06 2.46.56 7.23-1.1 9.28-2.35 2.91-8.39 1.61-11.54 2.78-14.12 5.23-10.17 24.17-8.31 35.85 2.41 15.11 8.15 33.89-10.6 41.89a.4.4 0 0 0-.01.73Z"/><path fill="#0e9fb4" d="M392.15 116.53c-3.55-19.91 7.24-38.42 25.98-45.05 16.96-6.01 39.84-1.57 56.39 5.07a1.58 1.56 11.2 0 1 .98 1.45v31.26q0 .61-.61.64c-5.02.25-9.94.79-12.58-1.26q-.39-.3-.54-.77c-.88-2.74-.77-5.82-.98-8.08q-.46-5.02-.8-10.04-.08-1.2-1.38-1.38-1.68-.24-1.73-.25c-15.08-4.08-40.21-7.04-45.93 12.91-4.13 14.39 5.67 22.48 17.97 26.75q13.35 4.62 26.53 9.67c20.7 7.94 26.84 27.64 20.67 47.77-11.7 38.09-58.99 33.32-87.22 22.56q-.4-.15-.4-.57v-34.69a1.01 1-.6 0 1 .99-1c3.88-.07 12.57-1.7 13.27 3.92q1.08 8.78 1.46 17.6a.76.75 9.6 0 0 .48.67q9.91 3.94 18.55 5.08c17.11 2.25 34.49-3.34 36.58-22.95 1.57-14.62-9.37-21.6-22.05-25.37-19.75-5.87-41.55-11.05-45.63-33.94ZM171 154.52v43.7q0 .52.5.63l11.2 2.56a3.61 3.6-83.6 0 1 2.8 3.52v8.57a.5.5 0 0 1-.5.5h-47.5q-.5 0-.5-.5v-8.08a4.43 4.42-6.1 0 1 3.5-4.32l10.25-2.18q.75-.16.75-.94V85.5q0-.45-.43-.53l-10.66-2.09a4.22 4.22 0 0 1-3.41-4.14v-8.2q0-.53.54-.53 26.63-.04 53.2.06c14.59.05 31.84 2.61 42.46 13.48 8.77 8.98 11.7 23.56 8.68 35.7-4.26 17.16-16.32 27.02-33.11 31.48q-.58.15-.14.56 4.34 4.07 9.91 11.66 13.06 17.84 26.05 35.73a1.15 1.14-11.8 0 0 .7.45l10.68 2.11q3.03.59 3.03 3.68v8.54q0 .48-.49.49-10.32.14-20.52.06-4.29-.03-6.79-3.45-28.83-39.37-38.25-52.51c-4.31-6.02-15.01-4.11-21.46-4.02q-.49 0-.49.49Zm52.28-43.75c-.97-28.63-31.43-25.32-51.89-24.63q-.39.01-.39.41v52.44q0 .49.49.5c15.57.1 29.49 1.62 40.67-5.86q11.63-7.79 11.12-22.86ZM305.76 133.52l51.48-.03q.76 0 .76.75V149a.51.5-90 0 1-.5.51l-51.5-.02q-.51 0-.51.51v47.49a.51.5 90 0 0 .5.51h51.74q.82 0 .93-.81.74-5.57.81-11.68c.08-7.05 9.36-5.1 13.87-4.97q.66.02.66.67v32.29a.5.5 0 0 1-.5.5h-102q-.5 0-.5-.5v-8.55a3.55 3.54-5.7 0 1 2.85-3.47l11.03-2.19a.78.77 84.6 0 0 .62-.76V85.77q0-.64-.64-.71-6.37-.71-12.44-2.83a2.13 2.13 0 0 1-1.42-2.01v-9.09q0-.63.62-.63h101.76q.62 0 .62.62v33.75q0 .63-.63.63h-9.34a4.11 4.1-2.7 0 1-4.09-3.72l-1.39-14.77q-.05-.51-.56-.51l-52.24-.01q-.26 0-.26.26v46.51q0 .26.27.26ZM536 87h-31.45q-1.54 0-1.74 1.52l-1.57 11.63a2.16 2.16 0 0 1-1.77 1.84q-5.77 1-11.57.26a1.04 1.04 0 0 1-.9-1.03V71a.5.5 0 0 1 .5-.5H605q.5 0 .5.5v30.24a1.23 1.22 89.5 0 1-1.2 1.23q-4.45.1-9.31-.03c-3.48-.09-3.62-2.96-4.07-5.65q-.78-4.66-1.39-9.32-.06-.47-.54-.47h-32.03a.47.47 0 0 0-.47.47l.01 111.22a.64.63 5.5 0 0 .52.62l12.1 2.42a.83.82 79.8 0 1 .55.39c1.77 3.01 1.48 7.87 1.27 11.26q-.04.62-.66.62h-47.56q-.63 0-.66-.63c-.26-5.38-1.85-11.45 5.27-12.48q4.37-.63 8.61-1.9.57-.17.57-.76L536.5 87.5q0-.5-.5-.5Z"/></svg>