<svg xmlns="http://www.w3.org/2000/svg" viewBox="0 0 256 256"><g fill="none" stroke="#80d4f6" stroke-width="2"><path d="M204.79 76.63a.35.35 0 0 0-.22-.63H51.01a.35.35 0 0 0-.22.63l76.78 61.83a.35.35 0 0 0 .44 0l76.78-61.83M46.11 78.89a.38.38 0 0 0-.61.29v98.38a.38.38 0 0 0 .61.29l61.1-49.18a.38.38 0 0 0 0-.6l-61.1-49.18M209.49 177.38a.31.31 0 0 0 .51-.24V79.1a.31.31 0 0 0-.51-.24l-60.89 49.02a.31.31 0 0 0 0 .48l60.89 49.02" vector-effect="non-scaling-stroke"/><path d="m126.61 143.68-14.89-11.98a.68.68 0 0 0-.84 0l-59.81 48.17a.35.35 0 0 0 .22.63h153.33a.46.45 64.3 0 0 .28-.81l-59.92-48.23q-.42-.34-.84 0l-15.19 12.22a1.87 1.87 0 0 1-2.34 0" vector-effect="non-scaling-stroke"/></g><path fill="#00a8ec" d="M40.49 232.74c-18.58-10.6-24.33-28.76-24.39-49.3q-.18-68.28-.09-106.44c.04-13.67.87-27.31 8.77-39.03 13.35-19.79 32.38-21.84 54.65-21.92q68.49-.26 105.82.09c30.34.28 52.07 16.66 54.18 48.42q.27 4.11.3 9.89.25 42.14-.07 109.8c-.06 14.05-2.26 26.89-11.41 37.74-13.19 15.65-29.28 17.78-48.69 17.88q-62.24.33-109.31-.01c-10.27-.08-20.96-2.09-29.76-7.12Zm164.3-156.11a.35.35 0 0 0-.22-.63H51.01a.35.35 0 0 0-.22.63l76.78 61.83a.35.35 0 0 0 .44 0l76.78-61.83ZM46.11 78.89a.38.38 0 0 0-.61.29v98.38a.38.38 0 0 0 .61.29l61.1-49.18a.38.38 0 0 0 0-.6l-61.1-49.18Zm163.38 98.49a.31.31 0 0 0 .51-.24V79.1a.31.31 0 0 0-.51-.24l-60.89 49.02a.31.31 0 0 0 0 .48l60.89 49.02Zm-82.88-33.7-14.89-11.98a.68.68 0 0 0-.84 0l-59.81 48.17a.35.35 0 0 0 .22.63h153.33a.46.45 64.3 0 0 .28-.81l-59.92-48.23q-.42-.34-.84 0l-15.19 12.22a1.87 1.87 0 0 1-2.34 0Z"/><path fill="#fff" d="m204.79 76.63-76.78 61.83a.35.35 0 0 1-.44 0L50.79 76.63a.35.35 0 0 1 .22-.63h153.56a.35.35 0 0 1 .22.63ZM46.11 78.89l61.1 49.18a.38.38 0 0 1 0 .6l-61.1 49.18a.38.38 0 0 1-.61-.29V79.18a.38.38 0 0 1 .61-.29ZM209.49 177.38l-60.89-49.02a.31.31 0 0 1 0-.48l60.89-49.02a.31.31 0 0 1 .51.24v98.04a.31.31 0 0 1-.51.24Z"/><path fill="#fff" d="M126.61 143.68a1.87 1.87 0 0 0 2.34 0l15.19-12.22q.42-.34.84 0l59.92 48.23a.46.45 64.3 0 1-.28.81H51.29a.35.35 0 0 1-.22-.63l59.81-48.17a.68.68 0 0 1 .84 0l14.89 11.98Z"/></svg>